<svg width="58" height="24" viewBox="0 0 58 24" fill="none" xmlns="http://www.w3.org/2000/svg">
<path fill-rule="evenodd" clip-rule="evenodd" d="M57.5269 12.4005C57.5269 8.29907 55.5455 5.06275 51.7583 5.06275C47.9551 5.06275 45.654 8.29906 45.654 12.3685C45.654 17.1909 48.3706 19.6262 52.2696 19.6262C54.1712 19.6262 55.6094 19.1936 56.696 18.5848V15.3805C55.6094 15.9252 54.363 16.2617 52.781 16.2617C51.2309 16.2617 49.8567 15.717 49.6809 13.8264H57.495C57.495 13.6182 57.5269 12.785 57.5269 12.4005ZM49.633 10.8785C49.633 9.06809 50.7356 8.31509 51.7423 8.31509C52.7171 8.31509 53.7557 9.06809 53.7557 10.8785H49.633Z" fill="#F6F5F5"/>
<path fill-rule="evenodd" clip-rule="evenodd" d="M39.4859 5.06275C37.9198 5.06275 36.9131 5.79973 36.3538 6.31242L36.1461 5.31909H32.6306V24L36.6255 23.1509L36.6415 18.6168C37.2167 19.0334 38.0637 19.6262 39.4699 19.6262C42.3302 19.6262 44.9349 17.3191 44.9349 12.2403C44.919 7.59413 42.2823 5.06275 39.4859 5.06275ZM38.5271 16.1015C37.5843 16.1015 37.025 15.765 36.6415 15.3485L36.6255 9.40454C37.041 8.93992 37.6162 8.61949 38.5271 8.61949C39.9812 8.61949 40.988 10.2537 40.988 12.3525C40.988 14.4993 39.9972 16.1015 38.5271 16.1015Z" fill="#F6F5F5"/>
<path fill-rule="evenodd" clip-rule="evenodd" d="M27.1335 4.11749L31.1445 3.25234V0L27.1335 0.849132V4.11749Z" fill="#F6F5F5"/>
<path d="M31.1445 5.33511H27.1335V19.3538H31.1445V5.33511Z" fill="#F6F5F5"/>
<path fill-rule="evenodd" clip-rule="evenodd" d="M22.835 6.52069L22.5793 5.33511H19.1277V19.3538H23.1226V9.85314C24.0654 8.61949 25.6634 8.84379 26.1588 9.02003V5.33511C25.6474 5.14286 23.7778 4.79039 22.835 6.52069Z" fill="#F6F5F5"/>
<path fill-rule="evenodd" clip-rule="evenodd" d="M14.8451 1.85848L10.9461 2.69159L10.9301 15.5247C10.9301 17.8959 12.7039 19.6422 15.0689 19.6422C16.3792 19.6422 17.338 19.4019 17.8653 19.1135V15.8611C17.354 16.0694 14.8292 16.8064 14.8292 14.4352V8.74766H17.8653V5.33511H14.8292L14.8451 1.85848Z" fill="#F6F5F5"/>
<path fill-rule="evenodd" clip-rule="evenodd" d="M4.04287 9.40454C4.04287 8.77971 4.55422 8.53939 5.40114 8.53939C6.6156 8.53939 8.14965 8.90788 9.36411 9.56475V5.79973C8.03779 5.27103 6.72746 5.06275 5.40114 5.06275C2.15726 5.06275 0 6.76101 0 9.5968C0 14.0187 6.07229 13.3138 6.07229 15.2203C6.07229 15.9573 5.4331 16.1976 4.53824 16.1976C3.21192 16.1976 1.51807 15.6529 0.175777 14.9159V18.729C1.66189 19.3698 3.16398 19.6422 4.53824 19.6422C7.86202 19.6422 10.1471 17.992 10.1471 15.1242C10.1311 10.3498 4.04287 11.1989 4.04287 9.40454Z" fill="#F6F5F5"/>
</svg>
