<svg width="101" height="24" viewBox="0 0 101 24" fill="none" xmlns="http://www.w3.org/2000/svg">
<path d="M20.6323 5.6806L11.0245 0.133623C10.716 -0.0445409 10.3353 -0.0445409 10.0268 0.133623L0.419474 5.6806C0.160123 5.83035 0 6.10727 0 6.40723V17.5928C0 17.8923 0.160123 18.1697 0.419474 18.3194L10.0272 23.8664C10.3358 24.0445 10.7164 24.0445 11.025 23.8664L20.6327 18.3194C20.8921 18.1697 21.0522 17.8927 21.0522 17.5928V6.40723C21.0522 6.10774 20.8921 5.83035 20.6327 5.6806H20.6323ZM20.0288 6.85558L10.7539 22.9201C10.6912 23.0283 10.5257 22.9841 10.5257 22.8587V12.3399C10.5257 12.1297 10.4133 11.9353 10.2311 11.8297L1.12176 6.57052C1.01351 6.50783 1.05771 6.34227 1.1831 6.34227H19.7329C19.9963 6.34227 20.1609 6.6278 20.0292 6.85605H20.0288V6.85558Z" fill="#F6F5F5"/>
<path d="M32.5854 6.22817H36.6737V8.48026H32.7238C30.5931 8.48026 28.9301 9.71024 28.9301 12.3087C28.9301 14.9072 30.5931 16.1372 32.7238 16.1372H36.6737V18.3893H32.4122C28.8435 18.3893 26.3145 16.2933 26.3145 12.3092C26.3145 8.32507 29.0167 6.22905 32.5854 6.22905V6.22817Z" fill="#F6F5F5"/>
<path d="M38.7524 6.22817H41.2814V13.6596C41.2814 15.513 42.1303 16.3794 44.1226 16.3794C46.115 16.3794 46.9637 15.5134 46.9637 13.6596V6.22817H49.4928V14.1792C49.4928 16.8815 47.7781 18.5968 44.1226 18.5968C40.4673 18.5968 38.7524 16.8643 38.7524 14.1621V6.22817Z" fill="#F6F5F5"/>
<path d="M62.7098 9.67506C62.7098 11.0264 61.9304 12.0656 60.8908 12.5162V12.5509C61.982 12.707 62.5367 13.4864 62.5535 14.5432L62.6056 18.3888H60.0765L60.0248 14.9591C60.0076 14.1968 59.5567 13.7291 58.6563 13.7291H54.4464V18.3888H51.9177V6.22817H58.8987C61.1858 6.22817 62.7098 7.38872 62.7098 9.67553V9.67506ZM60.163 10.0219C60.163 8.98269 59.6088 8.41079 58.5697 8.41079H54.4464V11.6326H58.6037C59.5562 11.6326 60.163 11.0611 60.163 10.0215V10.0219Z" fill="#F6F5F5"/>
<path d="M72.2711 14.8374C72.2711 13.9714 71.7169 13.6074 70.8858 13.5384L68.0794 13.2786C65.654 13.0535 64.3892 12.1004 64.3892 9.79647C64.3892 7.49254 65.9486 6.22779 68.1831 6.22779H74.3847V8.41041H68.3562C67.4902 8.41041 66.936 8.861 66.936 9.72704C66.936 10.593 67.5075 11.0089 68.3739 11.0784L71.232 11.321C73.3977 11.5114 74.8179 12.4991 74.8179 14.8203C74.8179 17.1414 73.3111 18.3889 71.1804 18.3889H64.7015V16.2063H70.9375C71.7518 16.2063 72.2711 15.652 72.2711 14.8378V14.8374Z" fill="#F6F5F5"/>
<path d="M82.2154 6.0203C86.026 6.0203 88.4346 8.46272 88.4346 12.2912C88.4346 16.1197 85.9227 18.5968 82.1116 18.5968C78.3005 18.5968 75.8924 16.1197 75.8924 12.2912C75.8924 8.46272 78.4043 6.0203 82.2154 6.0203ZM85.8185 12.3084C85.8185 9.74458 84.3285 8.23763 82.1628 8.23763C79.9976 8.23763 78.5076 9.74458 78.5076 12.3084C78.5076 14.8721 79.9976 16.379 82.1628 16.379C84.3285 16.379 85.8185 14.8721 85.8185 12.3084Z" fill="#F6F5F5"/>
<path d="M100.976 9.67506C100.976 11.0264 100.196 12.0656 99.1565 12.5162V12.5509C100.248 12.707 100.802 13.4864 100.82 14.5432L100.872 18.3888H98.3426L98.2905 14.9591C98.2737 14.1968 97.8228 13.7291 96.9224 13.7291H92.7125V18.3888H90.1834V6.22817H97.1648C99.4515 6.22817 100.976 7.38872 100.976 9.67553V9.67506ZM98.4291 10.0219C98.4291 8.98269 97.8749 8.41079 96.8354 8.41079H92.7125V11.6326H96.8698C97.8223 11.6326 98.4291 11.0611 98.4291 10.0215V10.0219Z" fill="#F6F5F5"/>
</svg>
