<svg width="90" height="24" viewBox="0 0 90 24" fill="none" xmlns="http://www.w3.org/2000/svg">
<path d="M6.22563 8.09603C4.08657 8.09603 3.033 9.98404 3.033 12.512V18.8481H0V5.50402H2.96915V8.96003H3.033C3.67153 6.81603 4.91666 5.12002 6.86416 5.12002C8.23699 5.12002 8.81167 5.60002 8.81167 5.60002L7.43883 8.35203C7.43883 8.35203 7.02379 8.09603 6.22563 8.09603ZM42.7174 9.95204V18.8801H39.7802V11.04C39.7802 8.80003 39.0778 7.61603 37.29 7.61603C35.4382 7.61603 34.5443 9.12003 34.5443 12V18.8801H31.6071V11.04C31.6071 8.89603 30.9047 7.61603 29.1487 7.61603C27.1055 7.61603 26.3392 9.40804 26.3392 12V18.8801H23.3701V5.50402H26.3392V8.54403H26.3711C26.8181 6.46402 28.0952 5.15202 30.2342 5.15202C32.3414 5.15202 33.7142 6.30402 34.257 8.32003C34.7678 6.36802 36.0768 5.15202 38.12 5.15202C40.8976 5.15202 42.7174 6.91203 42.7174 9.95204ZM14.75 5.12002C12.0043 5.12002 10.2484 6.40002 9.41827 8.73603L11.9404 9.66404C12.3874 8.25603 13.3452 7.45603 14.8138 7.45603C16.4421 7.45603 17.4318 8.19203 17.4318 9.28004C17.4318 10.4 16.6655 10.656 14.9415 10.944C13.0259 11.264 8.42855 11.36 8.42855 15.2321C8.42855 17.5041 10.3122 19.2001 13.1536 19.2001C15.2927 19.2001 16.7613 18.3361 17.4318 16.7041H17.4637V18.8801H20.4009V10.656C20.369 7.04003 18.5811 5.12002 14.75 5.12002ZM17.4956 12.576C17.4956 15.3921 16.1228 17.1841 13.888 17.1841C12.3236 17.1841 11.3977 16.3201 11.3977 15.0401C11.3977 13.8561 12.3555 13.024 14.2072 12.672C16.0909 12.32 17.0487 11.904 17.4956 10.848V12.576ZM53.1893 5.15202C50.9544 5.15202 49.4539 6.40002 48.8154 8.25603V5.50402H45.6866V24.0001H48.7834V16.1281H48.8154C49.5177 18.1441 50.9544 19.2641 53.1893 19.2641C56.765 19.2641 59.3191 16.3201 59.3191 12.16C59.3191 8.00003 56.765 5.15202 53.1893 5.15202ZM52.423 16.7681C49.9647 16.7681 48.5919 14.9761 48.5919 12.192C48.5919 9.40803 50.1243 7.61603 52.423 7.61603C54.7217 7.61603 56.2542 9.50404 56.2542 12.192C56.2542 14.8801 54.7217 16.7681 52.423 16.7681Z" fill="white"/>
<path d="M90.0003 18.7841V18.8801H77.9002V18.7841C79.6562 17.7921 80.8375 16.8001 81.923 15.7441H86.9035L90.0003 18.7841ZM86.9992 3.00801L83.9343 0H83.8385C83.8385 0 83.9024 5.60002 78.7303 10.72C73.686 15.7121 67.7796 15.7441 67.7796 15.7441V15.8401L70.9084 18.9121C70.9084 18.9121 76.7509 18.9761 81.891 13.888C87.0312 8.83203 86.9992 3.00801 86.9992 3.00801Z" fill="white"/>
</svg>
