<svg width="77" height="24" viewBox="0 0 77 24" fill="none" xmlns="http://www.w3.org/2000/svg">
<path d="M40.3697 6.03003C40.3697 6.89489 39.6758 7.59159 38.8143 7.59159C37.9529 7.59159 37.259 6.89489 37.259 6.03003C37.259 5.16516 37.929 4.46847 38.8143 4.46847C39.6997 4.49249 40.3697 5.18919 40.3697 6.03003ZM33.9568 9.17718C33.9568 9.32132 33.9568 9.56156 33.9568 9.56156C33.9568 9.56156 33.215 8.6006 31.6357 8.6006C29.0275 8.6006 26.9936 10.5946 26.9936 13.3574C26.9936 16.0961 29.0036 18.1141 31.6357 18.1141C33.2389 18.1141 33.9568 17.1291 33.9568 17.1291V17.5375C33.9568 17.7297 34.1004 17.8739 34.2918 17.8739H36.23V8.84084C36.23 8.84084 34.4593 8.84084 34.2918 8.84084C34.1004 8.84084 33.9568 9.00901 33.9568 9.17718ZM33.9568 14.967C33.5979 15.4955 32.88 15.952 32.0186 15.952C30.4871 15.952 29.3146 14.991 29.3146 13.3574C29.3146 11.7237 30.4871 10.7628 32.0186 10.7628C32.8561 10.7628 33.6218 11.2432 33.9568 11.7477V14.967ZM37.6658 8.84084H39.9629V17.8739H37.6658V8.84084ZM71.9795 8.6006C70.4002 8.6006 69.6584 9.56156 69.6584 9.56156V4.49249H67.3613V17.8739C67.3613 17.8739 69.132 17.8739 69.2995 17.8739C69.4909 17.8739 69.6345 17.7057 69.6345 17.5375V17.1291C69.6345 17.1291 70.3763 18.1141 71.9556 18.1141C74.5638 18.1141 76.5977 16.0961 76.5977 13.3574C76.5977 10.6186 74.5638 8.6006 71.9795 8.6006ZM71.5966 15.9279C70.7113 15.9279 70.0173 15.4715 69.6584 14.9429V11.7237C70.0173 11.2432 70.7831 10.7387 71.5966 10.7387C73.1281 10.7387 74.3006 11.6997 74.3006 13.3333C74.3006 14.967 73.1281 15.9279 71.5966 15.9279ZM66.1648 12.5165V17.8979H63.8677V12.7808C63.8677 11.2913 63.3891 10.6907 62.097 10.6907C61.403 10.6907 60.6852 11.0511 60.2305 11.5796V17.8739H57.9334V8.84084H59.7519C59.9434 8.84084 60.0869 9.00901 60.0869 9.17718V9.56156C60.7569 8.86486 61.6423 8.6006 62.5277 8.6006C63.5327 8.6006 64.3702 8.88889 65.0402 9.46547C65.8538 10.1381 66.1648 11.003 66.1648 12.5165ZM52.358 8.6006C50.7787 8.6006 50.0369 9.56156 50.0369 9.56156V4.49249H47.7397V17.8739C47.7397 17.8739 49.5105 17.8739 49.678 17.8739C49.8694 17.8739 50.013 17.7057 50.013 17.5375V17.1291C50.013 17.1291 50.7547 18.1141 52.334 18.1141C54.9423 18.1141 56.9762 16.0961 56.9762 13.3574C57.0001 10.6186 54.9662 8.6006 52.358 8.6006ZM51.9751 15.9279C51.0898 15.9279 50.3958 15.4715 50.0369 14.9429V11.7237C50.3958 11.2432 51.1615 10.7387 51.9751 10.7387C53.5065 10.7387 54.6791 11.6997 54.6791 13.3333C54.6791 14.967 53.5065 15.9279 51.9751 15.9279ZM45.7537 8.6006C46.4476 8.6006 46.8065 8.72072 46.8065 8.72072V10.8589C46.8065 10.8589 44.8922 10.2102 43.6958 11.5796V17.8979H41.3986V8.84084C41.3986 8.84084 43.1694 8.84084 43.3369 8.84084C43.5283 8.84084 43.6719 9.00901 43.6719 9.17718V9.56156C44.1026 9.05706 45.0358 8.6006 45.7537 8.6006ZM21.8967 17.0571C21.7771 16.7688 21.6575 16.4565 21.5378 16.1922C21.3464 15.7598 21.155 15.3514 20.9875 14.967L20.9635 14.9429C19.3124 11.3393 17.5417 7.68769 15.6753 4.08408L15.6035 3.93994C15.4121 3.57958 15.2206 3.19519 15.0292 2.81081C14.7899 2.37838 14.5506 1.92192 14.1678 1.48949C13.4021 0.528528 12.3013 0 11.1288 0C9.9324 0 8.85561 0.528529 8.06596 1.44144C7.70703 1.87387 7.44382 2.33033 7.20453 2.76276C7.0131 3.14715 6.82167 3.53153 6.63024 3.89189L6.55846 4.03604C4.71595 7.63964 2.92129 11.2913 1.27021 14.8949L1.24629 14.9429C1.07879 15.3273 0.887356 15.7357 0.695926 16.1682C0.576283 16.4324 0.456639 16.7207 0.336996 17.033C0.0259228 17.9219 -0.069792 18.7628 0.0498514 19.6276C0.313067 21.4294 1.5095 22.9429 3.16058 23.6156C3.78273 23.8799 4.4288 24 5.09881 24C5.29024 24 5.52952 23.976 5.72095 23.952C6.5106 23.8559 7.32417 23.5916 8.11382 23.1351C9.0949 22.5826 10.0281 21.7898 11.081 20.6366C12.1338 21.7898 13.091 22.5826 14.0481 23.1351C14.8378 23.5916 15.6514 23.8559 16.441 23.952C16.6324 23.976 16.8717 24 17.0632 24C17.7332 24 18.4032 23.8799 19.0014 23.6156C20.6764 22.9429 21.8489 21.4054 22.1121 19.6276C22.3035 18.7868 22.2078 17.9459 21.8967 17.0571ZM11.1049 18.3063C9.81276 16.6727 8.97525 15.1351 8.68811 13.8378C8.56847 13.2853 8.54454 12.8048 8.61632 12.3724C8.66418 11.988 8.80775 11.6517 8.99918 11.3634C9.45383 10.7147 10.2195 10.3063 11.1049 10.3063C11.9903 10.3063 12.7799 10.6907 13.2106 11.3634C13.4021 11.6517 13.5456 11.988 13.5935 12.3724C13.6653 12.8048 13.6413 13.3093 13.5217 13.8378C13.2346 15.1111 12.3971 16.6486 11.1049 18.3063ZM20.6525 19.4354C20.485 20.6847 19.6474 21.7658 18.4749 22.2462C17.9007 22.4865 17.2785 22.5586 16.6564 22.4865C16.0581 22.4144 15.4599 22.2222 14.8378 21.8619C13.9764 21.3814 13.1149 20.6366 12.1099 19.5315C13.6892 17.5856 14.6464 15.8078 15.0053 14.2222C15.1728 13.4775 15.1967 12.8048 15.1249 12.1802C15.0292 11.5796 14.8139 11.027 14.4789 10.5465C13.7371 9.46547 12.4928 8.84084 11.1049 8.84084C9.71704 8.84084 8.47275 9.48949 7.73096 10.5465C7.39596 11.027 7.1806 11.5796 7.08489 12.1802C6.98917 12.8048 7.0131 13.5015 7.20453 14.2222C7.56346 15.8078 8.54454 17.6096 10.0999 19.5556C9.11883 20.6607 8.23346 21.4054 7.37203 21.8859C6.74989 22.2462 6.15167 22.4384 5.55345 22.5105C4.90738 22.5826 4.28523 22.4865 3.73487 22.2703C2.56236 21.7898 1.72486 20.7087 1.55736 19.4595C1.48557 18.8589 1.53343 18.2583 1.77272 17.5856C1.8445 17.3453 1.96415 17.1051 2.08379 16.8168C2.25129 16.4324 2.44272 16.024 2.63415 15.6156L2.65808 15.5676C4.30916 11.988 6.07988 8.33634 7.92239 4.78078L7.99418 4.63664C8.18561 4.27628 8.37704 3.89189 8.56847 3.53153C8.7599 3.14715 8.97525 2.78679 9.23847 2.47447C9.74097 1.8979 10.411 1.58559 11.1528 1.58559C11.8946 1.58559 12.5646 1.8979 13.0671 2.47447C13.3303 2.78679 13.5456 3.14715 13.7371 3.53153C13.9285 3.89189 14.1199 4.27628 14.3114 4.63664L14.3831 4.78078C16.2017 8.36036 17.9724 12.012 19.6235 15.5916V15.6156C19.815 16 19.9825 16.4324 20.1739 16.8168C20.2935 17.1051 20.4132 17.3453 20.485 17.5856C20.6764 18.2102 20.7482 18.8108 20.6525 19.4354Z" fill="#F6F5F5"/>
</svg>
