<svg width="121" height="24" viewBox="0 0 121 24" fill="none" xmlns="http://www.w3.org/2000/svg">
<path fill-rule="evenodd" clip-rule="evenodd" d="M27.6 24L13.8 0L0 24H27.6ZM41.5193 22.9075L53.0521 1.09097H48.0636L40.1081 16.9349L32.1525 1.09097H27.1641L38.6969 22.9075H41.5193ZM120.115 1.09097V22.9076H115.985V1.09097H120.115ZM97.127 14.7646C97.127 13.0644 97.4819 11.5689 98.1916 10.2784C98.9013 8.98782 99.8909 7.99433 101.16 7.29785C102.429 6.60136 103.913 6.25305 105.612 6.25305C107.118 6.25305 108.473 6.58087 109.678 7.23638C110.882 7.89189 111.839 8.86495 112.549 10.1555C113.259 11.4461 113.625 13.0234 113.646 14.8875V15.8401H101.483C101.568 17.1921 101.966 18.2573 102.676 19.0358C103.408 19.7937 104.387 20.1727 105.612 20.1727C106.386 20.1727 107.097 19.9678 107.741 19.5581C108.387 19.1484 108.871 18.5954 109.193 17.8989L113.42 18.2061C112.904 19.7425 111.936 20.9716 110.517 21.8934C109.097 22.8153 107.462 23.2762 105.612 23.2762C103.913 23.2762 102.429 22.9279 101.16 22.2314C99.8909 21.5349 98.9013 20.5414 98.1916 19.2509C97.4819 17.9603 97.127 16.4649 97.127 14.7646ZM109.387 13.2283C109.236 11.8967 108.817 10.9237 108.129 10.3091C107.44 9.67409 106.602 9.35655 105.612 9.35655C104.472 9.35655 103.548 9.69458 102.838 10.3706C102.127 11.0466 101.687 11.9991 101.515 13.2283H109.387ZM90.1586 10.3091C90.847 10.8622 91.2769 11.6304 91.4493 12.6137L95.7076 12.3986C95.557 11.149 95.1166 10.0633 94.385 9.14145C93.6534 8.21965 92.7075 7.51294 91.5455 7.02128C90.406 6.50913 89.1477 6.25305 87.7708 6.25305C86.0715 6.25305 84.5877 6.60136 83.3183 7.29785C82.0494 7.99433 81.0598 8.98782 80.3501 10.2784C79.6404 11.5689 79.2855 13.0644 79.2855 14.7646C79.2855 16.4649 79.6404 17.9603 80.3501 19.2509C81.0598 20.5414 82.0494 21.5349 83.3183 22.2314C84.5877 22.9279 86.0715 23.2762 87.7708 23.2762C89.1903 23.2762 90.481 23.0201 91.6424 22.508C92.8044 21.9754 93.7503 21.2277 94.4818 20.2648C95.2134 19.3021 95.6539 18.1754 95.8044 16.8848L91.5137 16.7004C91.3631 17.7862 90.9433 18.6261 90.2554 19.2201C89.567 19.7937 88.7386 20.0805 87.7708 20.0805C86.4376 20.0805 85.4049 19.6196 84.6734 18.6977C83.9424 17.7759 83.5769 16.4649 83.5769 14.7646C83.5769 13.0644 83.9424 11.7533 84.6734 10.8315C85.4049 9.90968 86.4376 9.44878 87.7708 9.44878C88.6961 9.44878 89.4914 9.73556 90.1586 10.3091ZM69.209 6.62108H73.0522L73.1632 9.75551C73.436 8.86831 73.8151 8.17932 74.301 7.68854C75.0054 6.97694 75.9879 6.62108 77.2473 6.62108H78.8167V9.97599H77.2154C76.3186 9.97599 75.5823 10.098 75.0054 10.3419C74.4504 10.5859 74.0235 10.9722 73.7247 11.5009C73.4472 12.0296 73.3085 12.7005 73.3085 13.5138V22.9075H69.209V6.62108ZM51.4824 10.2784C50.7726 11.5689 50.4177 13.0644 50.4177 14.7646C50.4177 16.4649 50.7726 17.9603 51.4824 19.2509C52.1922 20.5414 53.1816 21.5349 54.4507 22.2314C55.7198 22.9279 57.2039 23.2762 58.9031 23.2762C60.7527 23.2762 62.3876 22.8153 63.807 21.8934C65.227 20.9716 66.1948 19.7425 66.7108 18.2061L62.4844 17.8989C62.162 18.5954 61.6779 19.1484 61.0325 19.5581C60.3872 19.9678 59.6775 20.1727 58.9031 20.1727C57.6771 20.1727 56.6984 19.7937 55.9671 19.0358C55.2573 18.2573 54.8594 17.1921 54.7733 15.8401H66.937V14.8875C66.9151 13.0234 66.5496 11.4461 65.8399 10.1555C65.1302 8.86495 64.1731 7.89189 62.9686 7.23638C61.7641 6.58087 60.409 6.25305 58.9031 6.25305C57.2039 6.25305 55.7198 6.60136 54.4507 7.29785C53.1816 7.99433 52.1922 8.98782 51.4824 10.2784ZM61.4199 10.3091C62.1077 10.9237 62.5275 11.8967 62.6781 13.2283H54.8056C54.9777 11.9991 55.4186 11.0466 56.1284 10.3706C56.8382 9.69458 57.7631 9.35655 58.9031 9.35655C59.8924 9.35655 60.7314 9.67409 61.4199 10.3091Z" fill="#F6F5F5"/>
</svg>
