<svg width="91" height="24" viewBox="0 0 91 24" fill="none" xmlns="http://www.w3.org/2000/svg">
<path d="M9.64286 0C4.33929 0 0 4.27252 0 9.4945C0 14.7165 4.33929 18.989 9.64286 18.989C14.9464 18.989 19.2857 14.7429 19.2857 9.4945C19.2857 4.24614 14.9732 0 9.64286 0ZM9.64286 15.5868C6.34822 15.5868 3.69643 12.9231 3.69643 9.4945C3.69643 6.06593 6.34822 3.40219 9.64286 3.40219C12.9375 3.40219 15.5893 6.06593 15.5893 9.4945C15.5893 12.9231 12.9375 15.5868 9.64286 15.5868Z" fill="#F6F5F5"/>
<path d="M29.0355 5.27472C27.2944 5.27472 25.6069 5.96043 24.723 7.12087V5.53845H21.2409V24H24.723V17.3275C25.6069 18.4088 27.2409 18.989 29.0355 18.989C32.7854 18.989 35.7318 16.0879 35.7318 12.1319C35.7318 8.17582 32.7854 5.27472 29.0355 5.27472ZM28.4462 16.0088C26.4641 16.0088 24.6962 14.4791 24.6962 12.1319C24.6962 9.78461 26.4641 8.25494 28.4462 8.25494C30.4284 8.25494 32.1961 9.78461 32.1961 12.1319C32.1961 14.4791 30.4284 16.0088 28.4462 16.0088Z" fill="#F6F5F5"/>
<path d="M43.9289 5.27472C40.1253 5.27472 37.1253 8.20219 37.1253 12.1319C37.1253 16.0615 39.7503 18.989 44.0361 18.989C47.545 18.989 49.795 16.9055 50.4914 14.5582H47.0896C46.6611 15.5341 45.4557 16.2198 44.0093 16.2198C42.2146 16.2198 40.8486 14.9802 40.5271 13.2132H50.6521V11.8681C50.6521 8.28131 48.1075 5.27472 43.9289 5.27472ZM40.5539 10.7868C40.9289 9.12527 42.3218 8.04395 44.0093 8.04395C45.8039 8.04395 47.17 9.20439 47.3307 10.7868H40.5539Z" fill="#F6F5F5"/>
<path d="M59.9197 5.27472C58.3661 5.27472 56.7322 5.96043 55.9822 7.0945V5.53845H52.5V18.7253H55.9822V11.6308C55.9822 9.57362 57.1072 8.22857 58.9286 8.22857C60.6161 8.22857 61.5268 9.4945 61.5268 11.2615V18.7253H65.009V10.7077C65.009 7.43736 62.9733 5.27472 59.9197 5.27472Z" fill="#F6F5F5"/>
<path d="M73.9274 0.264221L66.347 18.7258H70.0702L71.6774 14.6906H80.3024L81.9095 18.7258H85.6863L78.1595 0.264221H73.9274ZM72.8827 11.6313L75.9899 3.90378L79.0702 11.6313H72.8827Z" fill="#F6F5F5"/>
<path d="M90.6417 0.264221H87.1059V18.7258H90.6417V0.264221Z" fill="#F6F5F5"/>
</svg>
