<svg width="134" height="24" viewBox="0 0 134 24" fill="none" xmlns="http://www.w3.org/2000/svg">
<path d="M26.9102 6.70034C22.0665 6.70034 18.2818 10.4054 18.2818 15.3654C18.2818 20.3254 21.9709 23.9988 26.9102 23.9988C31.8495 23.9988 35.6027 20.262 35.6027 15.3337C35.6027 10.4371 31.9136 6.70034 26.9102 6.70034ZM26.9429 20.4242C24.1845 20.4242 22.1633 18.2656 22.1633 15.3666C22.1633 12.4348 24.1519 10.2774 26.9102 10.2774C29.7012 10.2774 31.7212 12.4677 31.7212 15.3666C31.7212 18.2656 29.7012 20.4242 26.9429 20.4242ZM36.6605 10.47H39.0666V23.678H42.9154V7.02231H36.6605V10.47ZM8.59567 10.2761C10.6169 10.2761 12.2206 11.5323 12.8294 13.4007H16.9033C16.165 9.40658 12.8935 6.70034 8.62835 6.70034C3.78466 6.70034 0 10.4054 0 15.3666C0 20.3279 3.68905 24 8.62835 24C12.7979 24 16.1335 21.2938 16.8718 17.2667H12.8294C12.252 19.1351 10.6484 20.4242 8.62714 20.4242C5.83615 20.4242 3.88028 18.2656 3.88028 15.3666C3.88149 12.4348 5.80589 10.2761 8.59567 10.2761ZM109.79 13.7556L106.968 13.3373C105.621 13.1446 104.659 12.6933 104.659 11.6299C104.659 10.47 105.91 9.89075 107.609 9.89075C109.47 9.89075 110.657 10.6957 110.913 12.0165H114.634C114.216 8.66629 111.651 6.70156 107.706 6.70156C103.632 6.70156 100.938 8.79557 100.938 11.7591C100.938 14.5934 102.703 16.2374 106.262 16.7521L109.085 17.1704C110.464 17.3631 111.234 17.9119 111.234 18.9424C111.234 20.2632 109.887 20.8108 108.027 20.8108C105.749 20.8108 104.466 19.8766 104.274 18.4595H100.489C100.842 21.7133 103.376 24 107.994 24C112.196 24 114.986 22.067 114.986 18.7485C114.986 15.7849 112.966 14.2385 109.79 13.7556ZM40.991 0.160984C39.5798 0.160984 38.5207 1.19152 38.5207 2.60867C38.5207 4.02581 39.5786 5.05635 40.991 5.05635C42.4022 5.05635 43.4613 4.02581 43.4613 2.60867C43.4613 1.19152 42.4022 0.160984 40.991 0.160984ZM97.4741 12.725C97.4741 9.11754 95.2931 6.70156 90.6745 6.70156C86.3125 6.70156 83.8749 8.92484 83.3932 12.3397H87.2106C87.403 11.0189 88.4294 9.92368 90.6104 9.92368C92.5674 9.92368 93.5296 10.7932 93.5296 11.8567C93.5296 13.2421 91.765 13.5958 89.584 13.8214C86.6333 14.1434 82.9769 15.1739 82.9769 19.04C82.9769 22.0365 85.1906 23.9683 88.7186 23.9683C91.4769 23.9683 93.2089 22.8085 94.0755 20.9718C94.2038 22.6146 95.4226 23.678 97.1231 23.678H99.3682V20.2315H97.4753V12.725H97.4741ZM93.6894 16.9131C93.6894 19.1363 91.765 20.7791 89.423 20.7791C87.9791 20.7791 86.7603 20.1669 86.7603 18.879C86.7603 17.2362 88.7174 16.785 90.5135 16.5923C92.2455 16.4313 93.2077 16.0447 93.6894 15.3032V16.9131ZM73.258 6.70034C71.1085 6.70034 69.3124 7.60283 68.0295 9.11632V0H64.1807V23.678H67.9653V21.4877C69.2483 23.0658 71.0771 24 73.258 24C77.8766 24 81.3732 20.3279 81.3732 15.3666C81.3732 10.4054 77.8125 6.70034 73.258 6.70034ZM72.6807 20.4242C69.9224 20.4242 67.9012 18.2656 67.9012 15.3666C67.9012 12.4677 69.9539 10.2774 72.7122 10.2774C75.5032 10.2774 77.4591 12.436 77.4591 15.3666C77.4591 18.2656 75.439 20.4242 72.6807 20.4242ZM54.975 6.70034C52.4733 6.70034 50.8369 7.73088 49.8747 9.18095V7.02231H46.0574V23.6768H49.9062V14.6251C49.9062 12.0799 51.5099 10.2761 53.8833 10.2761C56.097 10.2761 57.4755 11.8543 57.4755 14.1422V23.678H61.3243V13.8531C61.3255 9.66391 59.1772 6.70034 54.975 6.70034ZM133.333 14.819C133.333 10.0517 129.869 6.70156 125.218 6.70156C120.279 6.70156 116.654 10.4383 116.654 15.3666C116.654 20.5535 120.535 24 125.282 24C129.292 24 132.435 21.6157 133.236 18.2339H129.227C128.649 19.7156 127.238 20.5535 125.345 20.5535C122.875 20.5535 121.015 19.0071 120.598 16.3008H133.332V14.819H133.333ZM120.823 13.53C121.433 11.2103 123.165 10.0834 125.154 10.0834C127.335 10.0834 129.003 11.3396 129.388 13.53H120.823Z" fill="#F6F5F5"/>
</svg>
