<svg width="23" height="10" viewBox="0 0 23 10" fill="none" xmlns="http://www.w3.org/2000/svg">
<path fill-rule="evenodd" clip-rule="evenodd" d="M8.38625 1.95795C8.63371 0.297921 10.3457 -0.172454 11.7928 0.0527524C12.3286 0.12972 13.0221 0.416578 13.3378 0.893682C14.0197 1.9242 13.4631 2.65249 12.6398 3.23192L12.6217 3.30493C12.6733 3.34681 12.7005 3.32659 12.7711 3.36432C13.1229 3.28526 13.474 3.22038 13.8282 3.22305C14.8372 3.23064 15.5807 3.87064 15.5573 4.92249C15.5385 5.76415 15.0046 6.84348 14.4155 7.41338C14.8415 7.83968 15.2339 8.30667 15.6589 8.73477C15.8518 8.92913 16.0297 9.11472 16.1867 9.34021C15.5764 9.34622 14.6405 9.37837 14.0536 9.33909C13.9196 9.22718 13.4135 8.64748 13.2356 8.46334C12.1833 9.2423 10.4543 9.8584 9.164 9.36202C8.52574 9.1153 8.01114 8.62588 7.73271 8.00081C7.08946 6.53909 8.10359 5.0462 9.44887 4.45565C8.83956 3.7231 8.23792 2.95298 8.38625 1.95795ZM9.81685 4.82948C9.36889 5.18373 9.08041 5.70178 9.01522 6.26913C8.9558 6.80479 9.14634 7.42787 9.48947 7.84316C10.115 8.60017 11.0444 8.68841 11.9388 8.43636C12.3101 8.31316 12.4996 8.2211 12.8513 8.04279C12.6104 7.81904 12.4082 7.55536 12.1797 7.31676L10.3965 5.4476C10.3315 5.37833 9.86002 4.84903 9.81685 4.82948ZM14.0098 6.96137C14.8535 5.69746 14.4872 3.86107 12.6797 3.91805C12.1426 3.94095 11.8856 4.00464 11.3793 4.16284C11.7471 4.51082 12.1131 4.91415 12.4491 5.29322C12.8279 5.72062 13.226 6.12954 13.616 6.54677L14.0098 6.96137ZM12.3002 2.41073C12.5464 1.22545 11.9689 0.637299 10.829 0.738098C10.5299 0.777376 10.2495 0.851846 10.0625 1.10978C9.29863 2.16361 10.3811 3.07507 11.0388 3.79082L11.2419 3.68937C11.7391 3.39163 12.1784 2.99648 12.3002 2.41073Z" fill="white"/>
<path d="M21.3194 0.209478C21.8708 0.221901 22.4355 0.20405 22.9942 0.21601L22.9984 5.98114C22.9986 6.28962 23.0077 6.6595 22.9803 6.96286C22.9498 7.27878 22.8797 7.58959 22.7713 7.88788C22.1577 9.53185 19.964 9.82805 18.4739 9.32194C17.8199 9.09984 17.3065 8.51888 17.0275 7.89441C16.7688 7.27519 16.796 6.61958 16.7892 5.9604C17.3206 5.82712 17.9394 5.7148 18.44 5.57605C18.4366 5.61561 18.4345 5.65526 18.4335 5.69496C18.4095 6.8201 18.2508 8.70757 19.8828 8.67401C21.3271 8.64433 21.3209 7.5451 21.3214 6.46644L21.3194 0.209478Z" fill="white"/>
<path d="M4.63111 0.211469C5.15149 0.208468 5.67188 0.208269 6.19227 0.210939C6.17468 0.684723 6.18693 1.22025 6.18711 1.69829L6.18872 4.36376C6.18975 5.27193 6.27241 7.08511 5.96956 7.85046C5.71966 8.49695 5.21769 9.0141 4.57892 9.28311C3.80038 9.61553 2.42023 9.62207 1.63277 9.29767C0.950222 9.01648 0.50038 8.53782 0.217641 7.86643C0.0170132 7.31114 0.0124144 6.5623 0 5.97443C0.504264 5.79082 1.12483 5.71557 1.64392 5.57881C1.62167 6.76943 1.44071 8.71932 3.11668 8.67315C3.79945 8.65435 4.15048 8.39984 4.38496 7.85944C4.70781 7.11532 4.37017 0.495483 4.53563 0.219082L4.63111 0.211469Z" fill="white"/>
</svg>
