<svg width="25" height="17" viewBox="0 0 25 17" fill="none" xmlns="http://www.w3.org/2000/svg">
<path d="M9.32333 4.92535V3.44163C9.47642 3.42633 9.61421 3.42633 9.7673 3.42633C13.8549 3.30396 16.534 6.94444 16.534 6.94444C16.534 6.94444 13.6405 10.9367 10.5328 10.9367C10.1194 10.9367 9.72137 10.8756 9.32333 10.7379V6.22553C10.9155 6.42438 11.237 7.1127 12.1862 8.7035L14.3141 6.91385C14.3141 6.91385 12.7526 4.87947 10.15 4.87947C9.87446 4.87947 9.5989 4.89476 9.32333 4.92535ZM9.32333 0V2.21794L9.7673 2.18735C15.447 1.9885 19.1519 6.83737 19.1519 6.83737C19.1519 6.83737 14.8959 12.0228 10.4715 12.0228C10.0888 12.0228 9.70606 11.9922 9.32333 11.9157V13.2923C9.62952 13.3229 9.95101 13.3535 10.2725 13.3535C14.3907 13.3535 17.376 11.2427 20.2694 8.76468C20.744 9.14709 22.7036 10.0802 23.117 10.4779C20.3766 12.7723 13.9773 14.6231 10.349 14.6231C9.99694 14.6231 9.67544 14.6078 9.33864 14.5619V16.5198H25V0H9.32333ZM9.32333 10.7532V11.931C5.51133 11.2427 4.45499 7.28096 4.45499 7.28096C4.45499 7.28096 6.2921 5.26187 9.32333 4.92535V6.21023H9.30802C7.71586 6.01138 6.4605 7.5104 6.4605 7.5104C6.4605 7.5104 7.18004 10.019 9.32333 10.7532ZM2.55664 7.1127C2.55664 7.1127 4.8071 3.77814 9.32333 3.44163V2.23324C4.31721 2.63093 0 6.85267 0 6.85267C0 6.85267 2.44948 13.9348 9.32333 14.5772V13.2923C4.27128 12.6652 2.55664 7.1127 2.55664 7.1127Z" fill="white"/>
</svg>
