<svg width="19" height="21" viewBox="0 0 19 21" fill="none" xmlns="http://www.w3.org/2000/svg">
<g filter="url(#filter0_d_313_1031)">
<path fill-rule="evenodd" clip-rule="evenodd" d="M5.20549 13.8481C4.92761 13.4719 4.59004 12.7027 3.98927 11.769C3.64877 11.2408 2.80437 10.2463 2.5529 9.74121C2.33471 9.29479 2.35819 9.09464 2.41005 8.72472C2.50202 8.06662 3.13215 7.55418 3.80434 7.62334C4.31216 7.67469 4.74268 8.03413 5.13015 8.37366C5.364 8.57801 5.65166 8.97517 5.82485 9.19943C5.98434 9.40483 6.02348 9.48971 6.19373 9.73283C6.41877 10.0545 6.48922 10.2138 6.40311 9.85963C6.33364 9.33986 6.22014 8.45226 6.05576 7.66735C5.93052 7.07213 5.90019 6.97886 5.78082 6.52196C5.6546 6.03572 5.59002 5.69514 5.47163 5.17956C5.38944 4.81488 5.24169 4.0698 5.20158 3.65062C5.1458 3.0774 5.11645 2.14265 5.45989 1.71299C5.72896 1.37661 6.34636 1.27496 6.72894 1.48245C7.22991 1.75386 7.51464 2.53352 7.64477 2.84476C7.87862 3.40436 8.02343 4.05093 8.14965 4.89976C8.31012 5.98018 8.60561 7.47977 8.6154 7.7952C8.63888 7.40851 8.54886 6.59427 8.61148 6.2233C8.66823 5.88691 8.93242 5.49603 9.26313 5.39019C9.54297 5.30112 9.87075 5.26863 10.1594 5.33256C10.4657 5.39962 10.7885 5.63436 10.9089 5.85548C11.2631 6.50939 11.2699 7.8455 11.2846 7.77424C11.3688 7.38022 11.3541 6.48633 11.5625 6.11431C11.6995 5.8691 12.0488 5.64798 12.2347 5.61235C12.5224 5.55786 12.8756 5.5411 13.1779 5.60397C13.4216 5.65532 13.7513 5.96551 13.8403 6.11431C14.0536 6.4748 14.175 7.49444 14.2112 7.85179C14.2258 7.99955 14.2836 7.441 14.4979 7.08051C14.8951 6.41088 16.3011 6.28094 16.355 7.75014C16.3794 8.43549 16.3745 8.40405 16.3745 8.86514C16.3745 9.40693 16.3628 9.73283 16.3354 10.1248C16.3051 10.5439 16.2209 11.4913 16.0986 11.9503C16.0145 12.2657 15.7356 12.9751 15.4607 13.4006C15.4607 13.4006 14.4098 14.7105 14.2953 15.3005C14.1799 15.8894 14.218 15.8936 14.1955 16.3118C14.173 16.7288 14.3139 17.278 14.3139 17.278C14.3139 17.278 13.5292 17.3869 13.1065 17.3146C12.7239 17.2486 12.2503 16.4333 12.128 16.1839C11.9597 15.8402 11.6007 15.9062 11.4607 16.1598C11.2406 16.5612 10.767 17.2811 10.4324 17.3262C9.77878 17.4142 8.42264 17.3586 7.36102 17.3471C7.36102 17.3471 7.54203 16.2877 7.13891 15.924C6.84048 15.6526 6.3268 15.1024 6.01956 14.8132L5.20549 13.8481Z" fill="white"/>
<path fill-rule="evenodd" clip-rule="evenodd" d="M5.20549 13.8481C4.92761 13.4719 4.59004 12.7027 3.98927 11.769C3.64877 11.2408 2.80437 10.2463 2.5529 9.74121C2.33471 9.29479 2.35819 9.09464 2.41005 8.72472C2.50202 8.06662 3.13215 7.55418 3.80434 7.62334C4.31216 7.67469 4.74268 8.03413 5.13015 8.37366C5.364 8.57801 5.65166 8.97517 5.82485 9.19943C5.98434 9.40483 6.02348 9.48971 6.19373 9.73283C6.41877 10.0545 6.48922 10.2138 6.40311 9.85963C6.33364 9.33986 6.22014 8.45226 6.05576 7.66735C5.93052 7.07213 5.90019 6.97886 5.78082 6.52196C5.6546 6.03572 5.59002 5.69514 5.47163 5.17956C5.38944 4.81488 5.24169 4.0698 5.20158 3.65062C5.1458 3.0774 5.11645 2.14265 5.45989 1.71299C5.72896 1.37661 6.34636 1.27496 6.72894 1.48245C7.22991 1.75386 7.51464 2.53352 7.64477 2.84476C7.87862 3.40436 8.02343 4.05093 8.14965 4.89976C8.31012 5.98018 8.60561 7.47977 8.6154 7.7952C8.63888 7.40851 8.54886 6.59427 8.61148 6.2233C8.66823 5.88691 8.93242 5.49603 9.26313 5.39019C9.54297 5.30112 9.87075 5.26863 10.1594 5.33256C10.4657 5.39962 10.7885 5.63436 10.9089 5.85548C11.2631 6.50939 11.2699 7.8455 11.2846 7.77424C11.3688 7.38022 11.3541 6.48633 11.5625 6.11431C11.6995 5.8691 12.0488 5.64798 12.2347 5.61235C12.5224 5.55786 12.8756 5.5411 13.1779 5.60397C13.4216 5.65532 13.7513 5.96551 13.8403 6.11431C14.0536 6.4748 14.175 7.49444 14.2112 7.85179C14.2258 7.99955 14.2836 7.441 14.4979 7.08051C14.8951 6.41088 16.3011 6.28094 16.355 7.75014C16.3794 8.43549 16.3745 8.40405 16.3745 8.86514C16.3745 9.40693 16.3628 9.73283 16.3354 10.1248C16.3051 10.5439 16.2209 11.4913 16.0986 11.9503C16.0145 12.2657 15.7356 12.9751 15.4607 13.4006C15.4607 13.4006 14.4098 14.7105 14.2953 15.3005C14.1799 15.8894 14.218 15.8936 14.1955 16.3118C14.173 16.7288 14.3139 17.278 14.3139 17.278C14.3139 17.278 13.5292 17.3869 13.1065 17.3146C12.7239 17.2486 12.2503 16.4333 12.128 16.1839C11.9597 15.8402 11.6007 15.9062 11.4607 16.1598C11.2406 16.5612 10.767 17.2811 10.4324 17.3262C9.77878 17.4142 8.42264 17.3586 7.36102 17.3471C7.36102 17.3471 7.54203 16.2877 7.13891 15.924C6.84048 15.6526 6.3268 15.1024 6.01956 14.8132L5.20549 13.8481Z" stroke="#181D27" stroke-width="0.75" stroke-linecap="round" stroke-linejoin="round"/>
</g>
<defs>
<filter id="filter0_d_313_1031" x="0" y="0" width="18.7499" height="20.75" filterUnits="userSpaceOnUse" color-interpolation-filters="sRGB">
<feFlood flood-opacity="0" result="BackgroundImageFix"/>
<feColorMatrix in="SourceAlpha" type="matrix" values="0 0 0 0 0 0 0 0 0 0 0 0 0 0 0 0 0 0 127 0" result="hardAlpha"/>
<feOffset dy="1"/>
<feGaussianBlur stdDeviation="1"/>
<feColorMatrix type="matrix" values="0 0 0 0 0 0 0 0 0 0 0 0 0 0 0 0 0 0 0.24 0"/>
<feBlend mode="normal" in2="BackgroundImageFix" result="effect1_dropShadow_313_1031"/>
<feBlend mode="normal" in="SourceGraphic" in2="effect1_dropShadow_313_1031" result="shape"/>
</filter>
</defs>
</svg>
