<svg width="19" height="19" viewBox="0 0 19 19" fill="none" xmlns="http://www.w3.org/2000/svg">
<path d="M9.5 18.8738L12.1597 3.96164C14.692 3.96164 15.4937 4.23821 15.6061 5.3669C15.6061 5.3669 17.3068 4.73154 18.1609 3.45335C14.8194 1.90607 11.4554 1.8388 11.4554 1.8388L9.49251 4.22326H9.5L7.54456 1.8388C7.54456 1.8388 4.1806 1.90607 0.839117 3.45335C1.69322 4.73902 3.39393 5.3669 3.39393 5.3669C3.50631 4.23821 4.30797 3.96164 6.82532 3.95416L9.5 18.8738Z" fill="white"/>
<path d="M9.5 1.15112C12.2047 1.12869 15.2989 1.56971 18.4681 2.94507C18.8951 2.18264 19 1.84627 19 1.84627C15.5386 0.478387 12.2946 0.0149496 9.5 0C6.71293 0.0149496 3.46885 0.478387 0 1.84627C0 1.84627 0.157335 2.25739 0.53194 2.94507C3.7011 1.56223 6.79535 1.12869 9.5 1.15112Z" fill="white"/>
</svg>
