<svg width="242" height="250" viewBox="0 0 242 250" fill="none" xmlns="http://www.w3.org/2000/svg">
<path d="M177.228 66.9943V30.6209C177.228 29.1057 176.371 27.7205 175.016 27.043L122.678 0.8795C121.568 0.324881 120.264 0.316349 119.148 0.856402L66.9135 26.119C65.5324 26.7869 64.655 28.1859 64.655 29.72V55.2486" stroke="#F6F5F5" stroke-width="0.5"/>
<path d="M64.655 174.323V219.017C64.655 220.536 65.5161 221.925 66.8774 222.6L119.175 248.544C120.294 249.099 121.607 249.1 122.727 248.546L175.001 222.684C176.365 222.009 177.228 220.62 177.228 219.099V175.224C177.228 173.709 176.371 172.324 175.016 171.646L122.678 145.483C121.568 144.928 120.264 144.919 119.148 145.459L66.9135 170.722C65.5324 171.39 64.655 172.789 64.655 174.323Z" stroke="#F6F5F5" stroke-width="0.5"/>
<path d="M128.439 92.5535V112.469C128.439 113.989 129.3 115.377 130.661 116.052L182.959 141.996C184.077 142.551 185.391 142.552 186.51 141.998L238.785 116.136C240.149 115.462 241.011 114.072 241.011 112.551V93.4544C241.011 91.9392 240.155 90.554 238.8 89.8765L186.462 63.713C185.352 63.1584 184.048 63.1498 182.931 63.6899L130.697 88.9525C129.316 89.6204 128.439 91.0194 128.439 92.5535Z" stroke="#F6F5F5" stroke-width="0.5"/>
<path d="M128.536 147.885L128.449 126.907C128.443 125.367 129.321 123.96 130.708 123.29L137.609 119.952M177.626 214.448L183.23 217.228C184.349 217.783 185.663 217.784 186.782 217.23L239.046 191.373C240.415 190.696 241.279 189.298 241.272 187.771L241.022 127.785C241.015 126.276 240.16 124.899 238.81 124.224L231.108 120.374" stroke="#F6F5F5" stroke-width="0.5"/>
<path d="M64.239 182.45L58.1144 185.437C56.9935 185.983 55.6819 185.976 54.5673 185.417L2.456 159.267C1.10369 158.589 0.25 157.205 0.25 155.692V81.8517C0.25 80.3177 1.12726 78.9189 2.50815 78.2509L54.6342 53.0357C55.749 52.4964 57.0508 52.5039 58.1593 53.056L110.606 79.1764C111.964 79.8529 112.823 81.2396 112.823 82.757V148.085" stroke="#F6F5F5" stroke-width="0.5"/>
<path d="M64.239 213.784L58.1144 216.77C56.9935 217.316 55.6819 217.309 54.5673 216.75L2.45601 190.6C1.1037 189.922 0.250001 188.538 0.250003 187.025L0.250025 169.235C0.250027 167.701 1.12728 166.302 2.50818 165.634L8.10292 162.928" stroke="#4A4850" stroke-width="0.5"/>
<path d="M70.667 31.1221L119.165 55.106C120.283 55.659 121.595 55.6586 122.713 55.105L170.705 31.3392" stroke="#4A4850" stroke-width="0.5"/>
<path d="M134.706 94.3809L183.204 118.365C184.322 118.918 185.634 118.917 186.752 118.364L234.744 94.598" stroke="#4A4850" stroke-width="0.5"/>
<path d="M134.706 127.133L183.204 151.117C184.322 151.67 185.634 151.67 186.752 151.116L234.744 127.35" stroke="#4A4850" stroke-width="0.5"/>
<path d="M6.28491 82.9336L54.7829 106.918C55.9011 107.47 57.2133 107.47 58.3311 106.917L106.323 83.1508" stroke="#4A4850" stroke-width="0.5"/>
<path d="M64.3908 191.578C64.5146 191.517 64.5652 191.367 64.5039 191.243C64.4427 191.119 64.2927 191.069 64.1689 191.13L64.2799 191.354L64.3908 191.578ZM54.7829 194.301L54.8937 194.077L54.7829 194.301ZM58.3312 194.3L58.2202 194.076L58.3312 194.3ZM6.28491 170.317L6.17409 170.541L54.6721 194.525L54.7829 194.301L54.8937 194.077L6.39573 170.093L6.28491 170.317ZM58.3312 194.3L58.4421 194.524L64.3908 191.578L64.2799 191.354L64.1689 191.13L58.2202 194.076L58.3312 194.3ZM54.7829 194.301L54.6721 194.525C55.8602 195.113 57.2543 195.112 58.4421 194.524L58.3312 194.3L58.2202 194.076C57.1722 194.595 55.942 194.595 54.8937 194.077L54.7829 194.301Z" fill="#4A4850"/>
<path d="M70.667 175.275L119.165 199.259C120.283 199.812 121.595 199.812 122.713 199.258L170.705 175.492" stroke="#4A4850" stroke-width="0.5"/>
<path d="M121.584 7.91895C121.286 8.07745 120.705 8.04433 120.405 7.889C120.106 7.73367 120.096 7.42748 120.405 7.27262C120.715 7.11776 121.173 7.12729 121.502 7.29546C121.831 7.46362 121.882 7.76045 121.584 7.91895Z" fill="#D9D9D9"/>
<path d="M120.171 8.59204C119.873 8.75054 119.292 8.71742 118.993 8.5621C118.693 8.40677 118.683 8.10057 118.993 7.94571C119.302 7.79085 119.76 7.80039 120.09 7.96855C120.419 8.13672 120.469 8.43354 120.171 8.59204Z" fill="#D9D9D9"/>
<path d="M118.87 9.30048C118.572 9.45898 117.991 9.42586 117.692 9.27053C117.393 9.1152 117.382 8.80901 117.692 8.65415C118.002 8.49929 118.46 8.50882 118.789 8.67699C119.118 8.84515 119.168 9.14198 118.87 9.30048Z" fill="#D9D9D9"/>
<path d="M117.351 10.0263C117.053 10.1848 116.472 10.1517 116.173 9.99636C115.873 9.84103 115.863 9.53484 116.173 9.37998C116.482 9.22512 116.941 9.23465 117.27 9.40282C117.599 9.57098 117.649 9.86781 117.351 10.0263Z" fill="#D9D9D9"/>
<path d="M115.875 10.7878C115.576 10.9463 114.996 10.9132 114.696 10.7578C114.397 10.6025 114.386 10.2963 114.696 10.1415C115.006 9.98659 115.464 9.99613 115.793 10.1643C116.122 10.3325 116.173 10.6293 115.875 10.7878Z" fill="#D9D9D9"/>
<path d="M123.188 8.92328C122.889 9.08178 122.309 9.04866 122.009 8.89333C121.71 8.73801 121.699 8.43181 122.009 8.27695C122.319 8.12209 122.777 8.13162 123.106 8.29979C123.435 8.46795 123.486 8.76478 123.188 8.92328Z" fill="#D9D9D9"/>
<path d="M121.775 9.59638C121.477 9.75488 120.896 9.72176 120.596 9.56643C120.297 9.4111 120.287 9.1049 120.596 8.95004C120.906 8.79519 121.364 8.80472 121.693 8.97288C122.022 9.14105 122.073 9.43788 121.775 9.59638Z" fill="#D9D9D9"/>
<path d="M120.474 10.3048C120.176 10.4633 119.595 10.4302 119.296 10.2749C118.996 10.1195 118.986 9.81334 119.296 9.65848C119.606 9.50362 120.064 9.51316 120.393 9.68132C120.722 9.84948 120.772 10.1463 120.474 10.3048Z" fill="#D9D9D9"/>
<path d="M118.955 11.0306C118.657 11.1891 118.076 11.156 117.777 11.0007C117.477 10.8454 117.467 10.5392 117.777 10.3843C118.086 10.2295 118.544 10.239 118.873 10.4072C119.203 10.5753 119.253 10.8721 118.955 11.0306Z" fill="#D9D9D9"/>
<path d="M117.478 11.7921C117.18 11.9506 116.599 11.9175 116.3 11.7622C116.001 11.6068 115.99 11.3006 116.3 11.1458C116.61 10.9909 117.068 11.0005 117.397 11.1686C117.726 11.3368 117.776 11.6336 117.478 11.7921Z" fill="#D9D9D9"/>
<path d="M125.24 9.92761C124.942 10.0861 124.361 10.053 124.062 9.89767C123.762 9.74234 123.752 9.43614 124.062 9.28128C124.371 9.12642 124.83 9.13596 125.159 9.30412C125.488 9.47229 125.538 9.76911 125.24 9.92761Z" fill="#D9D9D9"/>
<path d="M123.827 10.6007C123.529 10.7592 122.948 10.7261 122.649 10.5708C122.349 10.4154 122.339 10.1092 122.649 9.95438C122.959 9.79952 123.417 9.80905 123.746 9.97722C124.075 10.1454 124.125 10.4422 123.827 10.6007Z" fill="#D9D9D9"/>
<path d="M122.527 11.3091C122.229 11.4676 121.648 11.4345 121.348 11.2792C121.049 11.1239 121.039 10.8177 121.348 10.6628C121.658 10.508 122.116 10.5175 122.445 10.6857C122.774 10.8538 122.825 11.1506 122.527 11.3091Z" fill="#D9D9D9"/>
<path d="M121.008 12.035C120.71 12.1935 120.129 12.1604 119.829 12.005C119.53 11.8497 119.52 11.5435 119.829 11.3886C120.139 11.2338 120.597 11.2433 120.926 11.4115C121.255 11.5796 121.306 11.8765 121.008 12.035Z" fill="#D9D9D9"/>
<path d="M119.531 12.7964C119.233 12.955 118.652 12.9218 118.352 12.7665C118.053 12.6112 118.043 12.305 118.352 12.1501C118.662 11.9953 119.12 12.0048 119.449 12.173C119.778 12.3411 119.829 12.6379 119.531 12.7964Z" fill="#D9D9D9"/>
<path d="M127.218 10.8867C126.92 11.0452 126.339 11.012 126.039 10.8567C125.74 10.7014 125.73 10.3952 126.039 10.2403C126.349 10.0855 126.807 10.095 127.136 10.2632C127.465 10.4313 127.516 10.7282 127.218 10.8867Z" fill="#D9D9D9"/>
<path d="M125.805 11.5598C125.507 11.7183 124.926 11.6851 124.627 11.5298C124.327 11.3745 124.317 11.0683 124.627 10.9134C124.936 10.7586 125.395 10.7681 125.724 10.9363C126.053 11.1044 126.103 11.4013 125.805 11.5598Z" fill="#D9D9D9"/>
<path d="M124.504 12.2682C124.206 12.4267 123.625 12.3936 123.326 12.2382C123.027 12.0829 123.016 11.7767 123.326 11.6219C123.636 11.467 124.094 11.4765 124.423 11.6447C124.752 11.8129 124.802 12.1097 124.504 12.2682Z" fill="#D9D9D9"/>
<path d="M122.985 12.994C122.687 13.1525 122.106 13.1194 121.807 12.9641C121.507 12.8087 121.497 12.5025 121.807 12.3477C122.116 12.1928 122.575 12.2024 122.904 12.3705C123.233 12.5387 123.283 12.8355 122.985 12.994Z" fill="#D9D9D9"/>
<path d="M121.509 13.7555C121.21 13.914 120.63 13.8809 120.33 13.7255C120.031 13.5702 120.021 13.264 120.33 13.1092C120.64 12.9543 121.098 12.9638 121.427 13.132C121.756 13.3002 121.807 13.597 121.509 13.7555Z" fill="#D9D9D9"/>
<path d="M121.584 153.64C121.286 153.798 120.705 153.765 120.405 153.61C120.106 153.454 120.096 153.148 120.405 152.993C120.715 152.838 121.173 152.848 121.502 153.016C121.831 153.184 121.882 153.481 121.584 153.64Z" fill="#D9D9D9"/>
<path d="M120.171 154.313C119.873 154.471 119.292 154.438 118.993 154.283C118.693 154.127 118.683 153.821 118.993 153.666C119.302 153.512 119.76 153.521 120.09 153.689C120.419 153.857 120.469 154.154 120.171 154.313Z" fill="#D9D9D9"/>
<path d="M118.87 155.021C118.572 155.18 117.991 155.147 117.692 154.991C117.393 154.836 117.382 154.53 117.692 154.375C118.002 154.22 118.46 154.23 118.789 154.398C119.118 154.566 119.168 154.863 118.87 155.021Z" fill="#D9D9D9"/>
<path d="M117.351 155.747C117.053 155.906 116.472 155.872 116.173 155.717C115.873 155.562 115.863 155.256 116.173 155.101C116.482 154.946 116.941 154.955 117.27 155.124C117.599 155.292 117.649 155.589 117.351 155.747Z" fill="#D9D9D9"/>
<path d="M115.875 156.508C115.576 156.667 114.996 156.634 114.696 156.479C114.397 156.323 114.386 156.017 114.696 155.862C115.006 155.707 115.464 155.717 115.793 155.885C116.122 156.053 116.173 156.35 115.875 156.508Z" fill="#D9D9D9"/>
<path d="M123.188 154.644C122.889 154.802 122.309 154.769 122.009 154.614C121.71 154.459 121.699 154.153 122.009 153.998C122.319 153.843 122.777 153.852 123.106 154.02C123.435 154.189 123.486 154.485 123.188 154.644Z" fill="#D9D9D9"/>
<path d="M121.775 155.317C121.477 155.476 120.896 155.442 120.596 155.287C120.297 155.132 120.287 154.826 120.596 154.671C120.906 154.516 121.364 154.525 121.693 154.694C122.022 154.862 122.073 155.159 121.775 155.317Z" fill="#D9D9D9"/>
<path d="M120.474 156.026C120.176 156.184 119.595 156.151 119.296 155.996C118.996 155.84 118.986 155.534 119.296 155.379C119.606 155.224 120.064 155.234 120.393 155.402C120.722 155.57 120.772 155.867 120.474 156.026Z" fill="#D9D9D9"/>
<path d="M118.955 156.751C118.657 156.91 118.076 156.877 117.777 156.721C117.477 156.566 117.467 156.26 117.777 156.105C118.086 155.95 118.544 155.96 118.873 156.128C119.203 156.296 119.253 156.593 118.955 156.751Z" fill="#D9D9D9"/>
<path d="M117.478 157.513C117.18 157.671 116.599 157.638 116.3 157.483C116.001 157.328 115.99 157.021 116.3 156.866C116.61 156.712 117.068 156.721 117.397 156.889C117.726 157.057 117.776 157.354 117.478 157.513Z" fill="#D9D9D9"/>
<path d="M125.24 155.648C124.942 155.807 124.361 155.774 124.062 155.618C123.762 155.463 123.752 155.157 124.062 155.002C124.371 154.847 124.83 154.857 125.159 155.025C125.488 155.193 125.538 155.49 125.24 155.648Z" fill="#D9D9D9"/>
<path d="M123.827 156.321C123.529 156.48 122.948 156.447 122.649 156.291C122.349 156.136 122.339 155.83 122.649 155.675C122.959 155.52 123.417 155.53 123.746 155.698C124.075 155.866 124.125 156.163 123.827 156.321Z" fill="#D9D9D9"/>
<path d="M122.527 157.03C122.229 157.188 121.648 157.155 121.348 157C121.049 156.845 121.039 156.538 121.348 156.384C121.658 156.229 122.116 156.238 122.445 156.406C122.774 156.575 122.825 156.871 122.527 157.03Z" fill="#D9D9D9"/>
<path d="M121.008 157.756C120.71 157.914 120.129 157.881 119.829 157.726C119.53 157.57 119.52 157.264 119.829 157.109C120.139 156.954 120.597 156.964 120.926 157.132C121.255 157.3 121.306 157.597 121.008 157.756Z" fill="#D9D9D9"/>
<path d="M119.531 158.517C119.233 158.676 118.652 158.643 118.352 158.487C118.053 158.332 118.043 158.026 118.352 157.871C118.662 157.716 119.12 157.725 119.449 157.894C119.778 158.062 119.829 158.359 119.531 158.517Z" fill="#D9D9D9"/>
<path d="M127.218 156.607C126.92 156.766 126.339 156.733 126.039 156.577C125.74 156.422 125.73 156.116 126.039 155.961C126.349 155.806 126.807 155.816 127.136 155.984C127.465 156.152 127.516 156.449 127.218 156.607Z" fill="#D9D9D9"/>
<path d="M125.805 157.28C125.507 157.439 124.926 157.406 124.627 157.251C124.327 157.095 124.317 156.789 124.627 156.634C124.936 156.479 125.395 156.489 125.724 156.657C126.053 156.825 126.103 157.122 125.805 157.28Z" fill="#D9D9D9"/>
<path d="M124.504 157.989C124.206 158.147 123.625 158.114 123.326 157.959C123.027 157.804 123.016 157.497 123.326 157.343C123.636 157.188 124.094 157.197 124.423 157.365C124.752 157.534 124.802 157.83 124.504 157.989Z" fill="#D9D9D9"/>
<path d="M122.985 158.715C122.687 158.873 122.106 158.84 121.807 158.685C121.507 158.529 121.497 158.223 121.807 158.068C122.116 157.914 122.575 157.923 122.904 158.091C123.233 158.259 123.283 158.556 122.985 158.715Z" fill="#D9D9D9"/>
<path d="M121.509 159.476C121.21 159.635 120.63 159.602 120.33 159.446C120.031 159.291 120.021 158.985 120.33 158.83C120.64 158.675 121.098 158.685 121.427 158.853C121.756 159.021 121.807 159.318 121.509 159.476Z" fill="#D9D9D9"/>
<path d="M57.2163 61.0815C56.9183 61.24 56.3374 61.2069 56.038 61.0516C55.7386 60.8963 55.7283 60.5901 56.038 60.4352C56.3477 60.2804 56.8059 60.2899 57.1349 60.4581C57.464 60.6262 57.5144 60.923 57.2163 61.0815Z" fill="#D9D9D9"/>
<path d="M55.8035 61.7546C55.5054 61.9131 54.9245 61.88 54.6252 61.7247C54.3258 61.5694 54.3154 61.2632 54.6251 61.1083C54.9349 60.9534 55.393 60.963 55.7221 61.1311C56.0512 61.2993 56.1016 61.5961 55.8035 61.7546Z" fill="#D9D9D9"/>
<path d="M54.503 62.4631C54.2049 62.6216 53.624 62.5885 53.3246 62.4331C53.0252 62.2778 53.0149 61.9716 53.3246 61.8167C53.6343 61.6619 54.0925 61.6714 54.4216 61.8396C54.7506 62.0077 54.801 62.3046 54.503 62.4631Z" fill="#D9D9D9"/>
<path d="M52.9837 63.1889C52.6856 63.3474 52.1047 63.3143 51.8053 63.159C51.506 63.0036 51.4956 62.6974 51.8053 62.5426C52.115 62.3877 52.5732 62.3972 52.9023 62.5654C53.2313 62.7336 53.2817 63.0304 52.9837 63.1889Z" fill="#D9D9D9"/>
<path d="M51.5071 63.9504C51.209 64.1089 50.6281 64.0758 50.3288 63.9204C50.0294 63.7651 50.0191 63.4589 50.3288 63.304C50.6385 63.1492 51.0967 63.1587 51.4257 63.3269C51.7548 63.4951 51.8052 63.7919 51.5071 63.9504Z" fill="#D9D9D9"/>
<path d="M58.8201 62.0859C58.522 62.2444 57.9411 62.2113 57.6418 62.0559C57.3424 61.9006 57.332 61.5944 57.6417 61.4395C57.9515 61.2847 58.4096 61.2942 58.7387 61.4624C59.0678 61.6306 59.1182 61.9274 58.8201 62.0859Z" fill="#D9D9D9"/>
<path d="M57.4072 62.759C57.1092 62.9175 56.5283 62.8844 56.2289 62.729C55.9295 62.5737 55.9192 62.2675 56.2289 62.1126C56.5386 61.9578 56.9968 61.9673 57.3259 62.1355C57.6549 62.3036 57.7053 62.6005 57.4072 62.759Z" fill="#D9D9D9"/>
<path d="M56.1067 63.4674C55.8086 63.6259 55.2277 63.5928 54.9284 63.4375C54.629 63.2821 54.6187 62.9759 54.9284 62.8211C55.2381 62.6662 55.6963 62.6758 56.0253 62.8439C56.3544 63.0121 56.4048 63.3089 56.1067 63.4674Z" fill="#D9D9D9"/>
<path d="M54.5874 64.1932C54.2894 64.3517 53.7085 64.3186 53.4091 64.1633C53.1097 64.008 53.0994 63.7018 53.4091 63.5469C53.7188 63.392 54.177 63.4016 54.506 63.5697C54.8351 63.7379 54.8855 64.0347 54.5874 64.1932Z" fill="#D9D9D9"/>
<path d="M53.1109 64.9547C52.8128 65.1132 52.2319 65.0801 51.9325 64.9248C51.6332 64.7694 51.6228 64.4632 51.9325 64.3084C52.2422 64.1535 52.7004 64.1631 53.0295 64.3312C53.3585 64.4994 53.4089 64.7962 53.1109 64.9547Z" fill="#D9D9D9"/>
<path d="M60.8726 63.0902C60.5745 63.2487 59.9936 63.2156 59.6942 63.0603C59.3949 62.9049 59.3845 62.5987 59.6942 62.4439C60.0039 62.289 60.4621 62.2986 60.7912 62.4667C61.1202 62.6349 61.1707 62.9317 60.8726 63.0902Z" fill="#D9D9D9"/>
<path d="M59.4597 63.7633C59.1617 63.9218 58.5808 63.8887 58.2814 63.7334C57.982 63.578 57.9717 63.2718 58.2814 63.117C58.5911 62.9621 59.0493 62.9717 59.3783 63.1398C59.7074 63.308 59.7578 63.6048 59.4597 63.7633Z" fill="#D9D9D9"/>
<path d="M58.1592 64.4717C57.8611 64.6302 57.2802 64.5971 56.9809 64.4418C56.6815 64.2865 56.6712 63.9803 56.9809 63.8254C57.2906 63.6706 57.7488 63.6801 58.0778 63.8483C58.4069 64.0164 58.4573 64.3132 58.1592 64.4717Z" fill="#D9D9D9"/>
<path d="M56.6402 65.1976C56.3421 65.3561 55.7612 65.323 55.4618 65.1676C55.1625 65.0123 55.1521 64.7061 55.4618 64.5512C55.7715 64.3964 56.2297 64.4059 56.5588 64.5741C56.8878 64.7422 56.9382 65.0391 56.6402 65.1976Z" fill="#D9D9D9"/>
<path d="M55.1634 65.959C54.8653 66.1175 54.2844 66.0844 53.985 65.9291C53.6856 65.7738 53.6753 65.4676 53.985 65.3127C54.2947 65.1579 54.7529 65.1674 55.082 65.3356C55.411 65.5037 55.4614 65.8005 55.1634 65.959Z" fill="#D9D9D9"/>
<path d="M62.8504 64.0493C62.5523 64.2078 61.9714 64.1746 61.672 64.0193C61.3727 63.864 61.3623 63.5578 61.672 63.4029C61.9817 63.2481 62.4399 63.2576 62.769 63.4258C63.098 63.5939 63.1484 63.8908 62.8504 64.0493Z" fill="#D9D9D9"/>
<path d="M61.4375 64.7224C61.1395 64.8809 60.5586 64.8477 60.2592 64.6924C59.9598 64.5371 59.9495 64.2309 60.2592 64.076C60.5689 63.9212 61.0271 63.9307 61.3561 64.0989C61.6852 64.267 61.7356 64.5639 61.4375 64.7224Z" fill="#D9D9D9"/>
<path d="M60.137 65.4308C59.8389 65.5893 59.258 65.5562 58.9586 65.4008C58.6593 65.2455 58.6489 64.9393 58.9586 64.7845C59.2684 64.6296 59.7265 64.6391 60.0556 64.8073C60.3846 64.9755 60.4351 65.2723 60.137 65.4308Z" fill="#D9D9D9"/>
<path d="M58.6177 66.1566C58.3196 66.3151 57.7387 66.282 57.4394 66.1267C57.14 65.9713 57.1296 65.6651 57.4394 65.5103C57.7491 65.3554 58.2073 65.365 58.5363 65.5331C58.8654 65.7013 58.9158 65.9981 58.6177 66.1566Z" fill="#D9D9D9"/>
<path d="M57.1411 66.9181C56.8431 67.0766 56.2622 67.0435 55.9628 66.8881C55.6634 66.7328 55.6531 66.4266 55.9628 66.2718C56.2725 66.1169 56.7307 66.1264 57.0597 66.2946C57.3888 66.4628 57.4392 66.7596 57.1411 66.9181Z" fill="#D9D9D9"/>
</svg>
