<svg width="242" height="236" viewBox="0 0 242 236" fill="none" xmlns="http://www.w3.org/2000/svg">
<path d="M97.313 20.7925L128.887 36.496" stroke="#4A4850" stroke-width="0.5" stroke-linecap="round"/>
<path d="M97.313 29.688L111.852 36.7707" stroke="#4A4850" stroke-width="0.5" stroke-linecap="round"/>
<path d="M87.9107 3.5278L201.954 59.802C202.637 60.1389 203.069 60.8342 203.069 61.5955V190.713" stroke="#4A4850" stroke-width="0.5" stroke-linecap="round"/>
<path d="M198.402 191.809L202.331 193.754C202.903 194.037 203.575 194.031 204.141 193.737L205.54 193.01C206.202 192.665 206.618 191.981 206.618 191.235V59.8006C206.618 59.0393 206.186 58.344 205.503 58.0071L88.8724 0.456538C88.3339 0.190792 87.7044 0.181119 87.1579 0.430192L85.7452 1.0741C85.0323 1.39906 84.5747 2.11043 84.5747 2.89397V52.6651" stroke="white" stroke-width="0.5"/>
<path d="M79.3706 55.0205L193.414 111.295C194.097 111.632 194.529 112.327 194.529 113.088L194.529 192.061" stroke="#4A4850" stroke-width="0.5" stroke-linecap="round"/>
<path d="M189.927 196.085L193.857 198.03C194.429 198.313 195.101 198.307 195.667 198.013L197.061 197.288C197.726 196.943 198.142 196.255 198.139 195.506L197.805 110.537C197.802 109.779 197.37 109.087 196.69 108.752L80.0543 51.1987C79.5158 50.933 78.8863 50.9233 78.3398 51.1724L76.9271 51.8163C76.2141 52.1412 75.7566 52.8526 75.7566 53.6362V83.9559" stroke="white" stroke-width="0.5"/>
<path d="M211.982 182.841L211.982 103.868C211.982 103.107 211.55 102.412 210.867 102.075L207.402 100.365" stroke="#4A4850" stroke-width="0.5" stroke-linecap="round"/>
<path d="M207.38 186.864L211.31 188.81C211.881 189.093 212.554 189.087 213.12 188.793L214.514 188.068C215.178 187.723 215.594 187.035 215.591 186.286L215.257 101.317C215.254 100.559 214.823 99.8672 214.142 99.5316L207.347 96.1783" stroke="white" stroke-width="0.5" stroke-linecap="round"/>
<path d="M220.232 178.712L220.231 128.344C220.231 127.582 219.799 126.887 219.116 126.55L215.652 124.841" stroke="#4A4850" stroke-width="0.5" stroke-linecap="round"/>
<path d="M215.629 182.735L219.559 184.681C220.131 184.964 220.803 184.958 221.369 184.663L222.761 183.94C223.427 183.594 223.843 182.904 223.838 182.154L223.509 126.576C223.505 125.819 223.073 125.129 222.394 124.794L215.596 121.44" stroke="white" stroke-width="0.5" stroke-linecap="round"/>
<path d="M229.21 175.01L229.21 145.197C229.21 144.436 228.778 143.741 228.095 143.404L224.63 141.694" stroke="#4A4850" stroke-width="0.5" stroke-linecap="round"/>
<path d="M224.608 179.034L228.538 180.98C229.109 181.263 229.782 181.256 230.348 180.962L231.735 180.241C232.403 179.894 232.82 179.201 232.813 178.448L232.492 142.918C232.485 142.163 232.054 141.476 231.377 141.142L224.575 137.786" stroke="white" stroke-width="0.5" stroke-linecap="round"/>
<path d="M237.459 171.091L237.459 153.79C237.459 153.029 237.027 152.333 236.344 151.997L232.88 150.287" stroke="#4A4850" stroke-width="0.5" stroke-linecap="round"/>
<path d="M232.857 175.115L236.787 177.061C237.359 177.344 238.031 177.337 238.597 177.043L239.979 176.325C240.65 175.976 241.067 175.278 241.056 174.522L240.747 152.433C240.737 151.682 240.306 151 239.632 150.667L232.824 147.308" stroke="white" stroke-width="0.5" stroke-linecap="round"/>
<path d="M71.6152 86.9907L185.659 143.265C186.342 143.602 186.774 144.297 186.774 145.058V196.892" stroke="#4A4850" stroke-width="0.5" stroke-linecap="round"/>
<path d="M181.943 199.902L185.872 201.848C186.444 202.131 187.116 202.125 187.682 201.83L189.081 201.103C189.743 200.759 190.159 200.075 190.159 199.329V143.335C190.159 142.573 189.726 141.877 189.043 141.541L72.0696 83.8972C71.5312 83.6319 70.9022 83.6224 70.356 83.8713L68.9427 84.5155C68.2298 84.8404 67.7722 85.5518 67.7722 86.3353V108.207" stroke="white" stroke-width="0.5"/>
<path d="M62.5576 110.166C107.153 132.171 132.32 144.59 176.59 166.434C177.273 166.771 177.716 167.472 177.716 168.233L177.716 201.212" stroke="#4A4850" stroke-width="0.5" stroke-linecap="round"/>
<path d="M172.885 204.223L176.815 206.169C177.386 206.452 178.059 206.445 178.625 206.151L180.024 205.424C180.686 205.08 181.101 204.395 181.101 203.649V166.509C181.101 165.748 180.669 165.052 179.985 164.715L63.012 107.072C62.4736 106.806 61.8446 106.797 61.2984 107.046L59.8851 107.69C59.1721 108.015 58.7146 108.726 58.7146 109.51V125.548" stroke="white" stroke-width="0.5"/>
<path d="M54.2563 129.548C98.8519 151.554 124.019 163.972 168.289 185.817C168.972 186.154 169.415 186.855 169.415 187.616L169.415 205.495" stroke="#4A4850" stroke-width="0.5" stroke-linecap="round"/>
<path d="M164.584 208.505L168.514 210.451C169.085 210.734 169.758 210.728 170.323 210.434L171.722 209.706C172.385 209.362 172.8 208.678 172.8 207.932V184.656C172.8 183.894 172.367 183.199 171.684 182.862L54.7108 125.218C54.1725 124.953 53.5434 124.944 52.9973 125.193L51.584 125.837C50.871 126.162 50.4135 126.873 50.4135 127.657V137.018" stroke="white" stroke-width="0.5"/>
<path d="M45.8135 140.086C90.409 162.091 115.576 174.51 159.846 196.354C160.529 196.691 160.972 197.392 160.972 198.153V210.395" stroke="#4A4850" stroke-width="0.5" stroke-linecap="round"/>
<path d="M156.141 212.433L160.071 214.379C160.642 214.662 161.315 214.656 161.881 214.361L163.279 213.634C163.942 213.29 164.357 212.606 164.357 211.86V196.092C164.357 195.33 163.924 194.634 163.241 194.298L46.2677 136.654C45.7293 136.389 45.1003 136.379 44.5542 136.628L43.1409 137.272C42.4279 137.597 41.9703 138.309 41.9703 139.092V144.492" stroke="white" stroke-width="0.5"/>
<path d="M37.4751 146.771C82.0706 168.776 107.238 181.195 151.508 203.04C152.19 203.376 152.634 204.077 152.634 204.839L152.634 214.816" stroke="#4A4850" stroke-width="0.5" stroke-linecap="round"/>
<path d="M147.803 216.854L151.732 218.8C152.304 219.083 152.976 219.077 153.542 218.783L154.941 218.056C155.603 217.711 156.019 217.027 156.019 216.281V203.467C156.019 202.705 155.586 202.009 154.903 201.673L37.9296 144.029C37.3912 143.764 36.7622 143.754 36.216 144.003L34.8027 144.647C34.0897 144.972 33.6322 145.684 33.6322 146.467V151.867" stroke="white" stroke-width="0.5"/>
<path d="M29.3508 153.682C73.9464 175.687 99.1134 188.106 143.383 209.95C144.066 210.287 144.51 210.988 144.51 211.749L144.509 218.678" stroke="#4A4850" stroke-width="0.5" stroke-linecap="round"/>
<path d="M139.678 220.717L143.608 222.663C144.18 222.946 144.852 222.939 145.418 222.645L146.817 221.918C147.479 221.574 147.894 220.89 147.894 220.143L147.894 209.631C147.894 208.869 147.462 208.173 146.778 207.837L29.8051 150.193C29.2667 149.928 28.6376 149.918 28.0915 150.167L26.6783 150.811C25.9653 151.136 25.5077 151.848 25.5078 152.631L25.5079 155.729" stroke="white" stroke-width="0.5"/>
<path d="M21.0076 157.631C65.6031 179.636 90.7702 192.055 135.04 213.9C135.723 214.237 136.166 214.937 136.166 215.699L136.166 222.628" stroke="#4A4850" stroke-width="0.5" stroke-linecap="round"/>
<path d="M131.335 224.666L135.265 226.612C135.836 226.895 136.509 226.888 137.075 226.594L138.474 225.867C139.136 225.523 139.551 224.839 139.551 224.093L139.551 213.58C139.551 212.818 139.118 212.122 138.435 211.786L21.4618 154.142C20.9234 153.877 20.2944 153.867 19.7483 154.116L18.335 154.76C17.622 155.085 17.1645 155.797 17.1645 156.58L17.1646 159.678" stroke="white" stroke-width="0.5"/>
<path d="M12.2729 162.345C56.8685 184.35 82.0356 196.769 126.306 218.614C126.988 218.95 127.432 219.651 127.432 220.413L127.432 227.341" stroke="#4A4850" stroke-width="0.5" stroke-linecap="round"/>
<path d="M122.6 229.38L126.53 231.326C127.102 231.609 127.774 231.602 128.34 231.308L129.739 230.581C130.401 230.237 130.817 229.553 130.817 228.806L130.816 218.294C130.816 217.532 130.384 216.836 129.7 216.5L12.7272 158.856C12.1888 158.591 11.5598 158.581 11.0136 158.83L9.60039 159.474C8.88738 159.799 8.42983 160.511 8.42987 161.294L8.43003 164.392" stroke="white" stroke-width="0.5"/>
<path d="M4.09302 166.252C48.6886 188.257 73.8556 200.676 118.126 222.521C118.808 222.858 119.252 223.558 119.252 224.32L119.252 231.249" stroke="#4A4850" stroke-width="0.5" stroke-linecap="round"/>
<path d="M2.8337 162.737L1.42046 163.382C0.707453 163.707 0.249903 164.418 0.249941 165.202L0.250094 168.3L0.372292 175.662C0.384717 176.41 0.814183 177.089 1.48524 177.421L114.421 233.287L118.35 235.233C118.922 235.516 119.594 235.51 120.16 235.215L121.559 234.488C122.221 234.144 122.637 233.46 122.637 232.714L122.636 222.201C122.636 221.439 122.204 220.744 121.521 220.407L4.54725 162.763C4.00889 162.498 3.37984 162.488 2.8337 162.737Z" stroke="white" stroke-width="0.5"/>
</svg>
