<svg width="244" height="255" viewBox="0 0 244 255" fill="none" xmlns="http://www.w3.org/2000/svg">
<path d="M8.93384 64.3418L119.785 119.01C120.902 119.561 122.212 119.56 123.328 119.008L232.874 64.8095" stroke="#4A4850" stroke-width="0.5"/>
<path d="M240.559 58.7304C241.923 59.4044 242.787 60.7946 242.787 62.3168V70.8101C242.787 72.3323 241.923 73.7226 240.559 74.3966L123.324 132.292C122.208 132.843 120.898 132.843 119.782 132.292L2.6339 74.4595C1.27131 73.7868 0.407543 72.4001 0.404569 70.8806L0.387932 62.3797C0.384947 60.8548 1.24929 59.4608 2.61655 58.7855L119.865 0.874859C120.981 0.323416 122.291 0.32338 123.407 0.874767L240.559 58.7304Z" stroke="#F6F5F5" stroke-width="0.5"/>
<path d="M8.93359 108.435L119.785 163.103C120.902 163.654 122.212 163.653 123.328 163.101L232.873 108.902" stroke="#4A4850" stroke-width="0.5"/>
<path d="M8.93359 125.634L119.785 180.302C120.902 180.853 122.212 180.852 123.328 180.3L232.873 126.102" stroke="#4A4850" stroke-width="0.5"/>
<path d="M8.93359 144.234L119.785 198.903C120.902 199.453 122.212 199.453 123.328 198.9L232.873 144.702" stroke="#4A4850" stroke-width="0.5"/>
<path d="M8.93359 162.197L119.785 216.866C120.902 217.417 122.212 217.416 123.328 216.864L232.873 162.665" stroke="#4A4850" stroke-width="0.5"/>
<path d="M8.93359 179.906L119.785 234.574C120.902 235.125 122.212 235.124 123.328 234.572L232.873 180.373" stroke="#4A4850" stroke-width="0.5"/>
<path d="M3.47274 101.186L2.61487 101.61C1.24848 102.285 0.384295 103.677 0.386249 105.201L0.497704 192.108C0.499655 193.628 1.36357 195.016 2.72704 195.69L119.873 253.521C120.99 254.072 122.299 254.072 123.415 253.521L240.647 195.627C242.014 194.952 242.878 193.56 242.876 192.037L242.79 105.138C242.788 103.617 241.925 102.228 240.561 101.555L238.404 100.49" stroke="#F6F5F5" stroke-width="0.5"/>
<path d="M3.47241 101.21L29.4037 88.4019M238.404 100.513L213.924 88.424" stroke="#F6F5F5" stroke-width="0.5"/>
<path d="M112.735 26.3638L162.041 50.7082L146.323 58.4772L96.9945 34.1376L112.735 26.3638Z" stroke="#4A4850"/>
<path d="M117.17 48.0988L158.395 68.4386L141.882 76.6116L100.636 56.2577L117.17 48.0988Z" stroke="#4A4850"/>
<path d="M121.328 71.0725L149.576 85.009L133.507 92.9274L105.269 78.994L121.328 71.0725Z" stroke="#4A4850"/>
<path d="M0.25 78.1353V99.5049" stroke="#4A4850" stroke-width="0.5" stroke-linecap="round" stroke-dasharray="1 1.5"/>
<path d="M242.879 78.1353V99.5049" stroke="#4A4850" stroke-width="0.5" stroke-linecap="round" stroke-dasharray="1 1.5"/>
<path d="M121.585 138.135V159.504" stroke="#4A4850" stroke-width="0.5" stroke-linecap="round" stroke-dasharray="1 1.5"/>
</svg>
