<svg width="90" height="24" viewBox="0 0 90 24" fill="none" xmlns="http://www.w3.org/2000/svg">
<path d="M36.3834 23.6018V5.18603C36.3834 3.59331 36.8258 2.34347 37.7106 1.4365C38.6176 0.50742 40.0002 0.0428772 41.8583 0.0428772H45.3092V3.32786H42.6547C41.9689 3.32786 41.4601 3.50483 41.1283 3.85876C40.8186 4.2127 40.6638 4.73254 40.6638 5.4183V23.6018H36.3834ZM33.8727 11.5495V8.26448H45.0881V11.5495H33.8727ZM52.4764 23.6018C51.1934 23.6018 50.1648 23.27 49.3906 22.6064C48.6163 21.9427 48.2292 20.8809 48.2292 19.4209V0.0428772H52.4764V18.9896C52.4764 19.432 52.5871 19.7638 52.8083 19.985C53.0516 20.2062 53.3834 20.3168 53.8037 20.3168H55.0978V23.6018H52.4764Z" fill="white"/>
<path d="M62.6681 24C60.8763 24 59.4495 23.4138 58.3877 22.2414C57.348 21.0468 56.8282 19.3988 56.8282 17.2973V8.27085H61.0754V16.2355C61.0754 17.7176 61.3187 18.8126 61.8054 19.5205C62.3142 20.2062 63.0774 20.5491 64.0949 20.5491C65.2452 20.5491 66.1301 20.1731 66.7495 19.4209C67.391 18.6467 67.7117 17.5296 67.7117 16.0696L67.7162 8.27115H71.9634L71.959 23.6018H68.0767L67.9772 18.7241L68.5081 18.89C68.2426 20.5712 67.6122 21.8432 66.6167 22.7059C65.6213 23.5686 64.3051 24 62.6681 24Z" fill="white"/>
<path d="M74.4253 23.6018L79.8991 15.8472L74.6249 8.37768H78.5877L82.0659 13.5664L85.487 8.37768H89.5069L84.2611 15.8757L89.7065 23.6018H85.7436L82.1229 18.128L78.4737 23.6018H74.4253Z" fill="white"/>
<path d="M2.9541e-05 8.50921L17.5642 0V6.42335L0 14.9832L2.9541e-05 8.50921Z" fill="white"/>
<path d="M8.7227 12.8884L22.6763 6.15264V12.576L8.72268 19.3292L8.7227 12.8884Z" fill="white"/>
<path d="M17.5519 17.2005L27.8314 12.1977V18.6274L17.5519 23.6364V17.2005Z" fill="white"/>
</svg>
