<svg preserveAspectRatio="none" width="100%" height="100%" overflow="visible" style="display: block;" viewBox="0 0 594.115 35.678" fill="none" xmlns="http://www.w3.org/2000/svg">
<path id="Vector 1" d="M0 31.7138H12.0063L13.1636 30.7014H21.2281L22.1683 29.7612L23.2171 28.7847L24.4828 30.1229L25.7485 31.7138H28.7501L29.3287 30.7014L31.6071 29.7612L34.8837 30.6391L36.0194 30.9435H36.7423L37.7967 31.9978H41.2266L42.5313 33.3025L43.8917 32.5171L44.1069 31.7138H50.2675L52.2748 33.721H54.6072L56.9849 31.3433L59.7947 30.5904L61.5915 31.0719L62.5989 29.327L63.5122 27.7452L66.0734 28.4315L68.5896 29.1057L70.5629 30.245L71.2614 30.9435L72.8778 29.327L74.5763 29.7821L75.7376 30.9435L77.1008 29.5802V27.7452L79.0041 25.842L80.4106 23.4058L82.5409 24.6357L83.7471 25.842H86.7929L89.4281 27.3634L90.0534 25.0298L91.2047 26.1812L93.2523 27.3634V28.4315L93.5601 29.5802L95.2773 30.0404L96.4727 28.845H99.9204L101.194 29.5802L101.981 30.9435H105.164L105.951 29.5802L107.722 29.1057L109.069 28.7449H110.408L111.007 29.7821L111.425 31.3433L113.203 31.8197H115.435H117.424H120.1L121.295 33.0146H127.188L128.383 31.8197H132.142V33.0146H136.229L137.025 33.8109L138.365 34.5842L140.54 32.4088L142.016 33.2609L143.339 34.5842L144.678 33.8109L145.488 32.4088H148.38L149.189 33.8109L149.859 34.9709H150.586L152.065 32.4088L153.633 31.5036L155.205 29.9319L157.422 31.2123L158.719 33.4578L159.369 34.5842L160.708 33.8109L161.242 31.8197H162.411H165.124L166.318 33.0146L167.349 34.0452H178.757L179.775 33.4578L181.294 34.3351L181.93 34.9709L183.64 33.2609L184.492 32.4088H189.028L190.235 31.7118H196.08L197.383 33.0146H199.768H228.157V31.7118H231.629H233.148L234.9 29.959L236.32 29.1392L236.551 28.2795L237.939 27.4778L239.485 27.8922L239.959 29.6591L241.781 30.7111H243.599L244.65 28.8906V27.4778L245.612 27.2201L246.882 25.0195L249.206 25.6421L250.266 27.4778H254.014L254.795 26.1252H256.618L257.49 27.6351L260.813 24.3729L264.016 18.8244L265.044 0.0709225L266.744 11.9326L267.792 14.0663H270.143L271.409 15.6936L271.915 17.9719L273.506 22.0223L276.074 22.6371H278.28L280.015 25.6421L283.415 29.6591L286.995 31.0994L290.865 30.3399L294.192 27.8446L296.145 26.4343L297.411 27.8446V29.3635L299.183 29.906L301.027 29.0019V26.9044L303.305 29.3635L304.571 30.6654L306.596 27.1937L308.296 29.3635L310.791 30.3399L312.021 28.7487V24.7707L313.106 22.9625L315.022 21.6968L316.797 24.7707L318.5 24.3143L320.87 20.2106L321.734 23.4366L325.014 25.3305L328.701 27.4588L330.77 26.9044L331.991 28.1259H332.996L334.402 26.7195H337.547L339.041 25.2254L340.926 27.1097L341.512 28.1259H344.755L345.888 28.7803L347.28 29.584H353.989L355.216 27.4588H359.094L361.096 24.1567L363.423 25.7333L365.601 22.4299L368.404 24.1567L369.68 21.7542L370.706 19.8273L372.708 21.9294L374.46 23.7313H380.327H382.878L384.18 22.4299L386.434 23.7313H388.846L392.222 26.7246L393.467 25.2377L397.305 25.5994L399.776 24.1728H402.328L404.071 22.4299L406.04 24.399L408.484 25.0539L412.944 18.8627L415.027 21.3331L416.515 21.8986H419.135L426.278 30.0836H433.302L434.671 32.1968H436.219C437.36 30.6789 439.642 27.643 439.642 27.643L441.011 29.1312H443.898L446.755 25.8274L453.184 30.7979H459.286L460.714 31.8694H471.221L473.156 33.2981L474.644 30.7979L477.501 29.1312L478.424 31.8694L485.865 31.5123L487.77 29.6372H489.942L492.264 13.7731L494.615 17.7019L495.895 22.3451L501.61 30.7979H505.062L508.842 26.7501H515.182L516.075 28.3276H518.843L520.51 26.7501H523.635L525.183 24.1606H528.546L532.624 28.1192H535.957L536.404 28.9824H543.249L544.297 30.7979H547.386L548.22 29.3991L549.887 26.7501L551.732 27.762H555.125L555.496 29.1456L557.149 29.786L559.977 27.0775L561.703 24.9643L566.138 29.3991H569.025L571.019 27.762L572.953 28.5954L574.323 30.5003H580.513L582.002 29.1456L584.145 30.7979L586.496 29.786L586.972 28.5954H590.931L591.775 25.4455H594.115" stroke="var(--stroke-0, #2E223F)"/>
</svg>
