<svg preserveAspectRatio="none" width="100%" height="100%" overflow="visible" style="display: block;" viewBox="0 0 596.175 164.863" fill="none" xmlns="http://www.w3.org/2000/svg">
<path id="Vector 2" d="M0.42513 150.132L1.22017 148.847H6.11265C6.43882 148.338 7.12785 147.257 7.27463 147.013C7.4214 146.768 8.27352 144.098 8.68123 142.793L9.78205 139.552L13.0233 143.588V146.462L14.5523 147.991L16.9985 146.462L18.2828 142.793L18.7109 137.472L21.2183 141.142V142.793H23.848L24.8877 139.552L26.2943 134.598L31.9819 138.206L33.2662 145.545L38.5256 136.371L42.8677 127.198L46.2925 129.277L49.0445 133.069L51.0627 130.684L53.9371 125.486L57.8511 128.727L59.0131 131.662L62.2543 130.684L63.1105 136.371L64.7618 140.102L66.3518 132.457L69.9601 133.069L71.5501 130.195L73.1402 137.472H75.2807L77.1765 133.069L78.4608 145.178H79.8674L80.3567 150.193L88.7351 160.345L89.751 160.073L90.0806 163.464L91.2425 164.137L94.9119 154.596L96.2574 148.052L101.028 152.823L102.312 148.052L104.942 142.793L106.351 148.052L107.266 154.902L109.59 157.96L116.989 135.026H122.86L124.084 129.522H129.955L133.527 116.188L135.336 117.841H137.783L138.211 116.188H141.819L142.859 112.704L148.334 122.188L149.797 116.727H153.378L157.536 127.626L160.996 119.664H165.411L166.853 111.01H173.672L177.431 106.464L179.441 99.0341H184.293L185.997 94.0077L186.26 91.8223H190.456L195.744 99.7772L202.781 93.7455L206.278 96.6302L210.255 91.5601L210.605 89.0687L213.796 87.5389L213.49 83.78L216.899 81.8131H220.483L222.576 74.0028L225.16 80.4582L231.847 68.963L233.421 80.939L236.742 86.4462L239.19 90.3362L240.501 83.2992L244.042 82.5125L244.654 93.7455L245.921 101.831L248.456 105.809L249.942 103.536L251.253 96.6302H253.22L255.93 100.171C256.906 95.9017 258.797 87.3466 258.553 87.2767C258.247 87.1892 265.327 133.345 265.459 133.695C265.563 133.974 266.988 128.974 267.688 126.439L270.092 131.684L272.714 115.25L278.134 111.36L282.548 96.9799L283.903 86.0965L287.837 81.9443L289.411 75.6066L291.334 78.4913L294.306 74.5576L297.06 80.7642L298.983 72.0225L300.032 73.5086L304.271 73.7709L306.063 77.6609L308.38 77.3986L310.653 70.5802L311.658 85.2661L317.821 89.9428L320.531 103.492L322.454 94.0077C323.955 91.764 326.956 87.3204 326.956 87.4952C326.956 87.67 328.325 81.7986 329.01 78.841L333.294 71.7603L337.315 71.4543L339.762 74.2516L341.86 59.6094L343.303 62.1445L345.095 64.5922L348.198 60.0902L350.427 59.6094L351.782 62.1445L354.011 58.5605L356.153 60.5273L357.508 58.2545L358.732 55.632L359.912 61.6637L362.053 63.4558H364.501L365.681 65.6412L368.304 56.8121L370.882 64.9418L373.461 57.4678L375.253 50.5619L378.182 53.9274L382.509 40.9024L384.957 48.2891L386.923 44.4427L390.333 44.7924L392.431 41.2521L393.567 43.1752H397.807L399.342 51.2568L402.193 48.2891L404.595 49.8561L408.947 45.5037L412.699 49.8561L412.449 62.5628L414.15 64.1636L416.651 59.5612L419.002 62.5628L419.953 58.7608L423.705 29.9955L430.258 21.491L432.459 24.4926L436.111 23.0419L439.963 39.7007L445.116 32.0967L447.818 33.7475L455.672 23.4921L456.472 17.739L459.374 21.7912L462.275 15.688H466.427L468.879 9.3346L471.43 14.7375L472.681 9.88488L477.933 17.4389L480.585 10.8854L484.737 16.3383L488.539 11.4857L490.39 14.7375L491.991 38.45L495.543 39.1004L501.096 19.2899H505.598L509 37.5495L514.103 42.4521L518.805 26.9439L520.506 30.9961L520.806 35.8486L524.108 34.2978L524.908 44.9535L527.16 47.4548L531.562 43.7528L532.963 30.5458L536.515 32.847L545.269 5.78271L547.62 8.58419L548.771 18.6395L550.322 21.8412L551.823 18.6395V12.4362L555.074 18.8897L557.175 12.9865L558.876 17.3388L559.977 20.5405L562.378 23.9423L564.529 18.6395L569.282 11.3857L570.182 14.6874L571.583 19.3399L574.134 12.4362L577.386 13.887L579.037 16.0381L580.538 8.58419L580.238 5.33247L585.19 7.38355L586.441 4.73214L589.393 1.08021L591.694 9.73479V16.8386L595.746 23.6422" stroke="var(--stroke-0, #CBCBCB)"/>
</svg>
