<svg preserveAspectRatio="none" width="100%" height="100%" overflow="visible" style="display: block;" viewBox="0 0 9.06016 9.00003" fill="none" xmlns="http://www.w3.org/2000/svg">
<g id="T">
<g id="Vector">
<path d="M4.53009 9.00003L5.79837 1.88914C7.00591 1.88914 7.38818 2.02102 7.44177 2.55923C7.44177 2.55923 8.25275 2.25626 8.66003 1.64676C7.06664 0.908937 5.46254 0.876858 5.46254 0.876858L4.52651 2.01389H4.53009L3.59763 0.876858C3.59763 0.876858 1.99353 0.908937 0.400142 1.64676C0.80742 2.25983 1.6184 2.55923 1.6184 2.55923C1.67199 2.02102 2.05426 1.88914 3.25466 1.88557L4.53009 9.00003Z" fill="var(--fill-0, white)"/>
<path d="M4.53009 0.548937C5.8198 0.538244 7.29529 0.748541 8.80651 1.40438C9.01015 1.04082 9.06016 0.880422 9.06016 0.880422C7.40961 0.228145 5.86267 0.00715494 4.53009 2.6226e-05C3.20107 0.00715494 1.65413 0.228145 8.46386e-06 0.880422C8.46386e-06 0.880422 0.0750335 1.07646 0.253664 1.40438C1.76488 0.744977 3.24037 0.538244 4.53009 0.548937Z" fill="var(--fill-0, white)"/>
</g>
</g>
</svg>
