<svg preserveAspectRatio="none" width="100%" height="100%" overflow="visible" style="display: block;" viewBox="0 0 17.4824 17.4824" fill="none" xmlns="http://www.w3.org/2000/svg">
<g id="News Source Icon Container">
<rect width="17.4824" height="17.4824" rx="8.74121" fill="var(--fill-0, black)"/>
<g id="Vector">
<path fill-rule="evenodd" clip-rule="evenodd" d="M7.1204 7.27573C7.24921 6.41163 8.14037 6.16679 8.89363 6.28402C9.17253 6.32408 9.53349 6.4734 9.69784 6.72175C10.0528 7.25817 9.7631 7.63727 9.3345 7.93888L9.32508 7.97689C9.35197 7.99869 9.36613 7.98816 9.40288 8.0078C9.58599 7.96665 9.76876 7.93288 9.9531 7.93426C10.4783 7.93821 10.8653 8.27136 10.8531 8.81888C10.8434 9.257 10.5655 9.81882 10.2588 10.1155C10.4806 10.3374 10.6848 10.5805 10.906 10.8033C11.0065 10.9045 11.099 11.0011 11.1808 11.1185C10.8631 11.1216 10.376 11.1383 10.0704 11.1179C10.0007 11.0596 9.73723 10.7579 9.64463 10.662C9.0969 11.0675 8.19687 11.3882 7.52524 11.1298C7.193 11.0014 6.92514 10.7466 6.78021 10.4213C6.44537 9.66038 6.97326 8.88328 7.67353 8.57588C7.35636 8.19456 7.04319 7.79368 7.1204 7.27573ZM7.86507 8.77047C7.63189 8.95487 7.48173 9.22453 7.4478 9.51986C7.41687 9.79868 7.51605 10.123 7.69466 10.3392C8.02025 10.7332 8.50406 10.7792 8.96963 10.648C9.16288 10.5838 9.26152 10.5359 9.44461 10.4431C9.31919 10.3266 9.21394 10.1894 9.09504 10.0652L8.16681 9.09222C8.13297 9.05616 7.88754 8.78064 7.86507 8.77047ZM10.0476 9.88019C10.4868 9.22228 10.2962 8.26638 9.35527 8.29603C9.0757 8.30796 8.94193 8.34111 8.67839 8.42346C8.86983 8.6046 9.06036 8.81454 9.23525 9.01186C9.43241 9.23434 9.63963 9.44719 9.84268 9.66438L10.0476 9.88019ZM9.15772 7.51143C9.28592 6.89444 8.98531 6.58829 8.39191 6.64076C8.23625 6.66121 8.09027 6.69997 7.99294 6.83423C7.59532 7.38279 8.15878 7.85724 8.50116 8.22981L8.60687 8.177C8.86566 8.02202 9.09436 7.81633 9.15772 7.51143Z" fill="var(--fill-0, #FEFEFE)"/>
<path d="M13.8525 6.3656C14.1396 6.37206 14.4335 6.36277 14.7243 6.369L14.7265 9.36995C14.7266 9.53052 14.7313 9.72305 14.7171 9.88097C14.7012 10.0454 14.6647 10.2072 14.6083 10.3625C14.2889 11.2182 13.147 11.3724 12.3713 11.1089C12.031 10.9933 11.7637 10.6909 11.6185 10.3659C11.4838 10.0435 11.4979 9.70228 11.4944 9.35915C11.7711 9.28977 12.0931 9.23131 12.3537 9.15908C12.352 9.17968 12.3508 9.20032 12.3503 9.22098C12.3378 9.80665 12.2552 10.7891 13.1048 10.7717C13.8566 10.7562 13.8533 10.184 13.8536 9.62256L13.8525 6.3656Z" fill="var(--fill-0, #FEFEFE)"/>
<path d="M5.16572 6.36663C5.43659 6.36507 5.70747 6.36497 5.97835 6.36636C5.9692 6.61298 5.97557 6.89174 5.97567 7.14058L5.9765 8.52804C5.97704 9.00078 6.02007 9.9446 5.86242 10.343C5.73234 10.6795 5.47105 10.9487 5.13855 11.0887C4.73329 11.2618 4.01488 11.2652 3.60498 11.0963C3.24969 10.9499 3.01553 10.7008 2.86835 10.3513C2.76392 10.0623 2.76153 9.67246 2.75506 9.36646C3.01755 9.27088 3.34058 9.23171 3.61078 9.16052C3.5992 9.78028 3.505 10.7953 4.3774 10.7712C4.73281 10.7614 4.91553 10.629 5.03759 10.3477C5.20564 9.96033 5.02989 6.51447 5.11601 6.3706L5.16572 6.36663Z" fill="var(--fill-0, #FEFEFE)"/>
</g>
</g>
</svg>
