<svg preserveAspectRatio="none" width="100%" height="100%" overflow="visible" style="display: block;" viewBox="0 0 17.4824 17.4824" fill="none" xmlns="http://www.w3.org/2000/svg">
<g id="News Source Icon Container">
<rect width="17.4824" height="17.4824" rx="8.74121" fill="var(--fill-0, black)"/>
<path id="Vector" d="M6.94903 6.85995V6.02288C7.0354 6.01425 7.11313 6.01425 7.1995 6.01425C9.50559 5.94521 11.0171 7.99906 11.0171 7.99906C11.0171 7.99906 9.38467 10.2514 7.63135 10.2514C7.39815 10.2514 7.17359 10.2169 6.94903 10.1392V7.59347C7.84728 7.70566 8.02866 8.09399 8.56415 8.99147L9.7647 7.9818C9.7647 7.9818 8.88372 6.83406 7.41543 6.83406C7.25996 6.83406 7.10449 6.84269 6.94903 6.85995ZM6.94903 4.08121V5.33251L7.1995 5.31525C10.4038 5.20306 12.494 7.93866 12.494 7.93866C12.494 7.93866 10.0929 10.8641 7.5968 10.8641C7.38088 10.8641 7.16495 10.8468 6.94903 10.8037V11.5804C7.12177 11.5976 7.30315 11.6149 7.48452 11.6149C9.80788 11.6149 11.4921 10.424 13.1245 9.02599C13.3922 9.24173 14.4978 9.76814 14.731 9.99251C13.185 11.287 9.57468 12.3311 7.52771 12.3311C7.32906 12.3311 7.14768 12.3225 6.95766 12.2966V13.4012H15.7933V4.08121C15.7933 4.08121 6.94903 4.08121 6.94903 4.08121ZM6.94903 10.1478V10.8123C4.79841 10.424 4.20245 8.18891 4.20245 8.18891C4.20245 8.18891 5.2389 7.0498 6.94903 6.85995V7.58484H6.94039C6.04214 7.47266 5.3339 8.31836 5.3339 8.31836C5.3339 8.31836 5.73984 9.73362 6.94903 10.1478ZM3.13146 8.09399C3.13146 8.09399 4.4011 6.21273 6.94903 6.02288V5.34114C4.12472 5.56551 1.68908 7.94728 1.68908 7.94728C1.68908 7.94728 3.071 11.9428 6.94903 12.3052V11.5804C4.09881 11.2265 3.13146 8.09399 3.13146 8.09399Z" fill="var(--fill-0, white)"/>
</g>
</svg>
